<?xml version="1.0" encoding="UTF-8"?>
<svg id="Layer_1" xmlns="http://www.w3.org/2000/svg" version="1.1" viewBox="0 0 510 748">
  <!-- Generator: Adobe Illustrator 30.6.0, SVG Export Plug-In . SVG Version: 2.1.4 Build 109)  -->
  <defs>
    <style>
      .st0, .st1 {
        fill: #942900;
      }

      .st2 {
        fill: #fab458;
      }

      .st3, .st4, .st5 {
        fill: none;
      }

      .st6 {
        font-size: 10px;
      }

      .st6, .st1 {
        font-family: Montserrat-Regular, Montserrat;
        isolation: isolate;
      }

      .st6, .st7 {
        fill: #2c2622;
      }

      .st4 {
        stroke: #5e7726;
      }

      .st4, .st5 {
        stroke-width: 2px;
      }

      .st1 {
        font-size: 20px;
      }

      .st8 {
        fill: #31547a;
      }

      .st9 {
        fill: #5e7726;
      }

      .st5 {
        stroke: #942900;
      }
    </style>
  </defs>
  <polygon class="st5" points="75 65 205 65 140 173 75 65"/>
  <polygon class="st5" points="305 65 435 65 370 173 305 65"/>
  <polygon class="st5" points="190 182 320 182 255 290 190 182"/>
  <circle class="st4" cx="255" cy="427" r="46"/>
  <circle class="st4" cx="47" cy="677" r="46"/>
  <circle class="st4" cx="463" cy="677" r="46"/>
  <path class="st2" d="M204,581c34.3-1.4,68.7-1.4,103,0-34.3,1.4-68.7,1.4-103,0h0Z"/>
  <path class="st2" d="M177,627c52.1-1.3,104.9-1.3,157,0-52.1,1.3-104.9,1.3-157,0h0Z"/>
  <path class="st2" d="M150,673c70.1-1.3,140.9-1.3,211,0-70.1,1.3-140.9,1.3-211,0h0Z"/>
  <path class="st3" d=""/>
  <path class="st9" d="M205.9,409.2l11.7-10.4,1.3,15.6-13-5.2Z"/>
  <path class="st7" d="M215,483" marker-end="url(#arch-arrow)"/>
  <path class="st3" d=""/>
  <path class="st9" d="M308.4,439.8l-12.6,9.3v-15.7c.1,0,12.6,6.3,12.6,6.3Z"/>
  <path class="st7" d="M295,483" marker-end="url(#arch-arrow)"/>
  <path class="st8" d="M105,747c99.6-1.3,200.4-1.3,300,0-99.6,1.3-200.4,1.3-300,0h0Z"/>
  <text class="st1" transform="translate(170.1 17)"><tspan x="0" y="0">Trayopastambha</tspan></text>
  <text class="st1" transform="translate(135.6 347)"><tspan x="0" y="0">Tridanda &amp; Purushartha</tspan></text>
  <text class="st6" transform="translate(123.1 87)"><tspan x="0" y="0">Ahara</tspan></text>
  <text class="st6" transform="translate(357.3 87)"><tspan x="0" y="0">Nidra</tspan></text>
  <text class="st6" transform="translate(215.9 201.8)"><tspan x="0" y="0">Brahma-charya</tspan></text>
  <text class="st6" transform="translate(240.2 433)"><tspan x="0" y="0">ATMA</tspan></text>
  <text class="st6" transform="translate(27.2 679.6)"><tspan x="0" y="0">SATTVA</tspan></text>
  <text class="st6" transform="translate(444.6 679.6)"><tspan x="0" y="0">SARIRA</tspan></text>
  <text class="st6" transform="translate(235.3 555)"><tspan x="0" y="0">Moksha</tspan></text>
  <text class="st6" transform="translate(240.2 606)"><tspan x="0" y="0">Kama</tspan></text>
  <text class="st6" transform="translate(241 657)"><tspan x="0" y="0">Artha</tspan></text>
  <text class="st6" transform="translate(234.3 708)"><tspan x="0" y="0">Dharma</tspan></text>
  <path class="st0" d="M67.6,59.9c41.8,0,105-.1,146.4.1,0,0-.8,1.3-.8,1.3l-36.1,60.2-36.3,60.1-.8,1.3c-21-35-51.4-87.4-72.4-123h0ZM67.6,59.9c21.2,34.9,52.4,86.3,73.2,120.8,0,0-1.5,0-1.5,0,0,0,36.1-60.2,36.1-60.2l36.3-60.1s.8,1.3.8,1.3c-40.4-.4-104-1.3-144.8-1.9h0Z"/>
  <path class="st0" d="M442.4,60.9c-41,.3-104.3.7-144.8.9,0,0,.8-1.3.8-1.3l36.3,60.1,36.1,60.2h-1.5c20.6-34,52.1-85.4,73.1-119.8h0ZM442.4,60.9c-21.2,35.5-51.3,87.1-72.4,122,0,0-.8-1.2-.8-1.2l-36.3-60.1-36.1-60.2s-.8-1.3-.8-1.3c41.2,0,104.7.6,146.4.9h0Z"/>
  <path class="st0" d="M255.2,297.9c-20.5-34.4-51.7-86.1-71.9-120.2,0,0,1.6,0,1.6,0,0,0,70.2,0,70.2,0l70.2.3s1.5,0,1.5,0c-20.3,34.4-50.9,85-71.6,119.7h0ZM255.2,297.9c20-34.5,49.5-85.4,69.3-119.3,0,0,.8,1.3.8,1.3h-70.2c0,0-70.2-.4-70.2-.4l.8-1.3c19.5,33.3,50,85.9,69.5,119.7h0Z"/>
  <path class="st2" d="M255.3,493.7c-38.8,66.7-98.9,169.1-137.4,234.9,0,0-.8-1.3-.8-1.3l138-.5s138-.3,138-.3c0,0-.8,1.3-.8,1.3-38.3-65.3-98.4-168-137-234.1h0ZM255.3,493.7c39.6,66.9,100.3,168.3,139.3,234.5,0,0-1.5,0-1.5,0l-138,.5-138,.3s-1.6,0-1.6,0c38.9-66.1,100.2-168.6,139.7-235.3h0Z"/>
  <path class="st2" d="M255,486.8c-.3-.2-144.3,248.4-144.6,245.8,72.3-.3,217.8-.7,290.1-.8,0,3-145.4-245.6-145.5-245h0ZM255,486.8c-.3.6,147.8,246.4,145.5,245.8-72.3.3-217.8.7-290.1.8-2.4.6,144.9-246,144.6-246.6h0Z"/>
</svg>