<?xml version="1.0" encoding="UTF-8"?>
<svg xmlns="http://www.w3.org/2000/svg" xmlns:xlink="http://www.w3.org/1999/xlink" viewBox="0 0 1582.5 2238.11">
  <defs>
    <style>
      .cls-1 {
        fill: #e47c66;
      }

      .cls-2 {
        fill: #c69a6c;
      }

      .cls-3 {
        fill: #8b3826;
      }

      .cls-4 {
        fill: #803c30;
      }

      .cls-5 {
        fill: #eacbb5;
      }

      .cls-6 {
        fill: #5f7835;
      }

      .cls-7 {
        fill: #fdfaf7;
      }

      .cls-8 {
        fill: #ee3628;
      }

      .cls-9 {
        fill: #75301b;
      }

      .cls-10 {
        fill: #cc7764;
      }

      .cls-11 {
        fill: url(#linear-gradient-4);
      }

      .cls-12 {
        fill: #522a25;
      }

      .cls-13 {
        fill: url(#linear-gradient-3);
      }

      .cls-14 {
        fill: url(#linear-gradient-5);
      }

      .cls-15, .cls-16, .cls-17, .cls-18 {
        isolation: isolate;
      }

      .cls-19 {
        fill: #d02b27;
      }

      .cls-20 {
        fill: #cc9b69;
      }

      .cls-16 {
        fill: url(#linear-gradient-2);
      }

      .cls-16, .cls-17, .cls-18 {
        opacity: .6;
      }

      .cls-21 {
        fill: #fffdfb;
      }

      .cls-22 {
        fill: #9e4b3a;
      }

      .cls-23 {
        fill: #f9b459;
      }

      .cls-24 {
        fill: #9e5b39;
      }

      .cls-25 {
        fill: #eac9b0;
      }

      .cls-26 {
        fill: #e19a79;
      }

      .cls-27 {
        fill: #d47c73;
      }

      .cls-28 {
        fill: #78372c;
      }

      .cls-29 {
        fill: #85433a;
      }

      .cls-30 {
        fill: #fbcb78;
      }

      .cls-17 {
        fill: #fee2d5;
      }

      .cls-18 {
        fill: url(#linear-gradient);
      }

      .cls-31 {
        fill: #fec886;
      }

      .cls-32 {
        fill: #ffe2c3;
      }

      .cls-33 {
        fill: #b86052;
      }

      .cls-34 {
        fill: #a95648;
      }
    </style>
    <linearGradient id="linear-gradient" x1="820.96" y1="3325.48" x2="820.96" y2="3125.15" gradientTransform="translate(0 4029.175) scale(1 -1)" gradientUnits="userSpaceOnUse">
      <stop offset="0" stop-color="#feeee6"/>
      <stop offset=".5" stop-color="#fee2d5"/>
      <stop offset="1" stop-color="#fbc9b5"/>
    </linearGradient>
    <linearGradient id="linear-gradient-2" x1="787.16" y1="3624.44" x2="787.16" y2="3290.85" xlink:href="#linear-gradient"/>
    <linearGradient id="linear-gradient-3" x1="653.2" y1="3743.31" x2="653.2" y2="3720.18" xlink:href="#linear-gradient"/>
    <linearGradient id="linear-gradient-4" x1="700.17" y1="3764.26" x2="700.17" y2="3739.13" xlink:href="#linear-gradient"/>
    <linearGradient id="linear-gradient-5" x1="695.79" y1="3747.8" x2="695.79" y2="3729.57" xlink:href="#linear-gradient"/>
  </defs>
  <g id="BodyBase">
    <g id="BodyBase-2" data-name="BodyBase">
      <path class="cls-20" d="M867.75,155.65c-13.04-27.88-49.96-46.42-75.77-49.18-58.91-6.34-98.26,28.98-98.26,28.98,0,0-21.67,16.1-33.32,44.44-15.08,36.54-2.91,50.6-4.14,65.58-.72,8.41-5.16,24.2-12.68,37.31-6.01,10.48-16.87,21.29-11.5,25.22,5.37,3.91,22.97,4.6,24.12,7.64,1.64,4.4.15,4.17-3.83,8.1-.05,0-.13.03-.2.03-4.19,4.17,4.14,11.01,4.75,11.55,0,0-5.32,8.89-1.97,11.65,20.85-1.76-.74,31.54,22.41,36.95,11.63,2.73,31.05,2.04,57.71-5.75.97,9.46,3.3,47.94-8.87,58.63-31.87,27.96-79.76,39.51-119.19,49.94-49.71,13.14-70.41,52.08-74.06,96.73-3.65,44.65,3.3,64.12-.2,81.24-3.5,17.1-6.13,89.01-6.85,108.08-.72,19.06-5.6,35.47-11.37,50.29s-24.28,30.49-32,115.61c-7.74,85.1-2.79,136.19-11.01,160.77-8.23,24.58-22.41,25.4-32.86,44.01-10.45,18.6-18.45,46.79-25.66,56.91-13.31,18.78-22.05,26.6-10.4,28.6,10.61,1.81,22.31-5.24,28.24-20.16,6.08-15.36,15.33-26.45,13.6-21.11-1.74,5.34-1,21.49-1.53,31.33-.56,9.97-2.15,37.57-3.73,52.03-1.58,14.59-7.1,46.18,1.15,48.28,8.28,2.12,13.37-29.11,15.49-38.61,1.61-7.23,6.29-39.71,8.41-49.81.08-.33.54-.26.51.08-1.61,14.57-6.08,65.45-6.82,72.78-.87,8.97-1.56,28.52,3.53,29.41,8.74,1.56,9.56-9.1,11.83-22.26,2.3-13.21,4.7-34.7,6.11-43.85.97-6.26,2.2-29.87,2.89-35.6.03-.26.41-.23.41,0-.2,8.02-.61,38.74-.97,48.94-.23,7.03-2.17,35.24,6.44,37.87,8.61,2.63,11.04-23.43,11.45-31.61.33-6.52,1.58-47.69,2.07-58.01.05-.72,1.07-.79,1.23-.1,1.3,5.39,2.07,32.4,2.56,36.65.72,6.13-.61,17.25,2.02,23.77,2.63,6.49,10.55,4.4,11.6-4.93,1.05-9.33,1.97-27.6,2.81-40.1.61-9.12,1.41-20.04,2.61-28.32.92-6.24,6.01-28.67,6.21-62.25.2-33.58-3.12-54.97,1.25-81.22,4.37-26.27,49.94-139.02,56.81-181.7,6.85-42.68-.31-83.34,11.24-116.07,11.01-31.18,13.14-32.81,15.23-51.83,3.58,36.34,16.64,100.41,27.68,160.13,6.36,34.4-60.54,145.26-69.9,247.48-16.76,183.01,36.6,395.02,33.02,425.99-3.58,30.97,18.22,75.36,16.74,89.14-1.46,13.77-24.48,58.7-14.49,131.79,10.02,73.12,31.59,202.66,32.05,227.75.49,25.07-8.48,46.95-6.29,56.27s4.63,8.31.36,19.81c-4.29,11.53-5.83,39.43-19.63,48.89-13.8,9.43-32.12,24.84-30.49,32.81,1.66,7.97,4.22,14.57,8.43,13.49,4.24-1.07,3.53,8.79,14.8,7.36,11.24-1.38,8.28,11.12,19.22,7.05,10.94-4.09,9.15,6.08,25.33.82,16.18-5.29,11.47,8.33,29.77,3.63,18.3-4.68,11.14-20.62,15.77-28.7,4.63-8.1,12.14-27.57,9.33-36.72-2.81-9.12-5.44-23.97-2.81-30,2.61-6.01,7.54-16.1,2.58-26.25-4.98-10.17-3.07-4.47-2.84-16.41.26-11.96,1.18-115.13,5.65-155.94,4.45-40.79,18.37-62.13,21.8-104.09,3.42-41.96-3.04-77.38-1.89-107.39,1.18-30.03,15.72-50.01,9.63-114.67-6.06-64.68,4.29-125.07,13.14-175.52,8.84-50.4,25.73-146.15,12.37-198.11,12.01,8.77,15.26,4.32,15.26,4.32,0,0,2.56,3.86,14.64-3.78-13.44,51.93,2.84,147.13,11.68,197.57,8.87,50.45,19.19,110.84,13.14,175.52-6.06,64.66,8.46,84.64,9.63,114.67,1.18,30-5.29,65.42-1.89,107.39,3.42,41.96,17.35,63.3,21.82,104.09,4.45,40.81,5.39,143.98,5.62,155.94.23,11.93,2.15,6.24-2.81,16.41-4.98,10.15-.05,20.24,2.58,26.25,2.61,6.03,0,20.88-2.81,30-2.84,9.15,4.68,28.62,9.3,36.72,4.63,8.08-2.5,24.02,15.77,28.7,18.3,4.7,13.6-8.92,29.8-3.63,16.15,5.26,14.39-4.91,25.3-.82,10.94,4.06,7.97-8.43,19.24-7.05,11.24,1.43,10.53-8.43,14.77-7.36,4.22,1.07,6.8-5.52,8.43-13.49,1.64-7.97-16.69-23.38-30.49-32.81-13.8-9.46-15.33-37.36-19.6-48.89-4.29-11.5-1.87-10.48.33-19.81,2.22-9.33-6.75-31.2-6.29-56.27.49-25.1,22.05-154.64,32.05-227.75,9.99-73.09-13.01-118.02-14.49-131.79-1.46-13.77,20.32-58.17,16.74-89.14-3.58-30.97,47-242.76,33.02-425.99-8.36-109.61-75.44-213.09-69.08-247.48,11.04-59.72,25.25-125.28,39.1-159.06,17.1-41.71,9.02-160.14,89.16-199.65,31.13-15.33,154.16-34.56,197.23-101.78,22.77-59.12-233.35-289.52-233.35-289.52,0,0-24.07,32.16-31.16,31.88,0,0,53.48,73.44,67.28,89.86,59.37,70.67,56.8,106.3,103.8,137.29-14.39,6.49-87.06,23.44-130.53,51.68-9.51,6.18-27.35-4.42-75.24,11.02-28.62,12.47-67.16,5.09-67.16,5.09,0,0-26.88-13.8-37.69-31.92-14.36-24.05-12.14-89.14-10.45-116.87,1.41-1.23,2.84-2.38,2.86-2.4,11.53-9.99,26.05-20.77,38.49-42.7,24.42-43.07,12.49-81.58-.8-109.99Z"/>
    </g>
    <path class="cls-20" d="M995.9,189.95c-20.27-11.13-31.19-2.22-49.3-8.09-18.11-5.86-40.41-19.49-51.26-21.76-20.09-4.25-30.55-4.08-24.12-12.44,5.85-7.61,17.79-10.07,30.71-3.88,13.28,6.38,26.05,8.05,21.68,5.6-4.37-2.45-13.66-13.48-19.97-19.6-6.4-6.19-24.14-23.32-33.93-31.83-9.87-8.6-32.6-25.96-28.46-32.33,4.14-6.4,26.37,10.98,33.52,15.93,5.43,3.76,28.15,22.22,35.65,27.55.25.17.51-.16.29-.36-9.87-8.57-43.59-39.2-48.52-43.56-6-5.35-18.28-17.74-15.49-21.41,4.78-6.31,11.77.18,21.22,7.42,9.5,7.27,24.08,19.89,30.54,25.04,4.43,3.51,19.52,18.24,23.44,21.58.17.15.41-.1.27-.25-4.99-5.13-23.85-25.01-30.25-31.48-4.4-4.47-22.75-21.78-18.7-28.71,4.05-6.94,21.42,8.67,26.63,13.78,4.16,4.07,29.9,30.29,36.46,36.76.47.44,1.18-.13.87-.68-2.41-4.32-18.25-22.49-20.5-25.56-3.24-4.45-10.84-10.93-13.06-16.79-2.2-5.85,4.26-9.27,10.59-3.79,6.33,5.48,17.99,16.89,26.11,24.57,5.92,5.61,13.05,12.28,18.84,16.98,4.38,3.53,21.29,15.15,41.74,37.03,20.46,21.88,30.23,37.9,48.97,52.46"/>
  </g>
  <g id="Digestive">
    <g class="cls-15">
      <g id="FaceOrgans">
        <g id="SalivaGroup">
          <g id="_01Parotid_Gland" data-name="01Parotid Gland">
            <path id="LowerSaliva-2" class="cls-30" d="M789.12,301.24c-5.06,34.12,4.5,42.47-8.35,47.93-3.45,1.45-12.85,3.13-16.06.72-1.28-.96-6.5-6.66-8.59-5.3,0,0,.32-4.98,1.04-8.43l3.77-15.34c.88-3.77-.8-7.95-2.41-11.24l-8.11-18.71c-2.65-5.94-2.73-11.8,2.01-16.86,3.21-3.45,9.8-4.58,15.34-2.65,19.91,2.73,21.36,29.87,21.36,29.87h0Z"/>
          </g>
          <g id="SalivaGlands">
            <ellipse class="cls-32" cx="757.85" cy="276.92" rx="2.33" ry="3.69" transform="translate(-45.52 351.84) rotate(-25.4)"/>
            <ellipse class="cls-32" cx="763.25" cy="276.78" rx="3.37" ry="2.81" transform="translate(374.21 989.38) rotate(-81.3)"/>
            <circle class="cls-32" cx="756.04" cy="284.3" r="3.21"/>
            <path class="cls-32" d="M759.01,285.5c.48-2.09.4-4.82,2.17-4.98s4.01,2.73,4.09,4.42-1.12,3.29-2.89,3.45-3.85-1.2-3.45-2.89h.08Z"/>
            <path class="cls-32" d="M757.72,288.31c2.01.24,3.85,0,4.09,1.2.32,1.2-.96,2.65-2.97,3.21s-3.85,0-4.09-1.2c-.32-1.2-.32-3.69,2.97-3.21Z"/>
            <circle class="cls-32" cx="765.27" cy="281.65" r="1.93"/>
            <ellipse class="cls-32" cx="768.41" cy="286.95" rx="2.33" ry="3.69" transform="translate(-21.32 65.31) rotate(-4.8)"/>
            <ellipse class="cls-32" cx="755.13" cy="300.42" rx="3.69" ry="2.33" transform="translate(162.75 856.81) rotate(-64.9)"/>
            <ellipse class="cls-32" cx="752.67" cy="295.18" rx="3.37" ry="2.81" transform="translate(-44.99 427.03) rotate(-30.8)"/>
            <circle class="cls-32" cx="771.94" cy="278.2" r="3.21"/>
            <path class="cls-32" d="M767.04,280.77c-.88-1.04-.96-2.01-.8-2.57.88-2.33,2.09-1.2,2.41,1.2.16,1.36,1.28,2.25.8,2.57s-1.53-.16-2.41-1.2Z"/>
            <ellipse class="cls-32" cx="783.29" cy="308.67" rx="2.81" ry="3.37" transform="translate(-39.63 486.48) rotate(-33.7)"/>
            <circle class="cls-32" cx="767.84" cy="297.31" r="3.21"/>
            <path class="cls-32" d="M770.81,302.93c0,2.17.88,4.82-.8,5.38s-4.5-1.61-5.14-3.29c-.64-1.61.24-3.45,1.85-4.09s4.01.16,4.09,1.93h0v.08Z"/>
            <path class="cls-32" d="M777.16,307.34c-2.01.24-4.58,0-5.22-1.12s.24-2.81,2.01-3.93,6.66-.64,7.39.4-.88,4.09-4.09,4.5h0v.16h-.08Z"/>
            <path class="cls-32" d="M759.89,316.58c-.88-.64-1.04-1.85-.48-2.65s5.62-2.33,6.5-1.77-2.81,3.13-3.45,3.93-1.85,1.04-2.65.48h.08Z"/>
            <ellipse class="cls-32" cx="759.62" cy="296.45" rx="2.33" ry="3.69" transform="translate(-55.51 274.84) rotate(-19.8)"/>
            <ellipse class="cls-32" cx="773.44" cy="299.18" rx="3.69" ry="2.33" transform="translate(92.08 771.9) rotate(-55.9)"/>
            <ellipse class="cls-32" cx="764.22" cy="292.01" rx="3.37" ry="2.81" transform="translate(22.09 636.31) rotate(-45.8)"/>
            <circle class="cls-32" cx="764.23" cy="319.07" r="3.21"/>
            <path class="cls-32" d="M780.13,312.08c-.32-1.12,3.85-.24,4.9,1.36s1.61,3.85.48,4.18c-2.01.72-4.18-1.69-5.38-5.54h0Z"/>
            <ellipse class="cls-32" cx="776.64" cy="342.25" rx="3.13" ry="2.49" transform="translate(208.95 973.14) rotate(-71.8)"/>
            <path class="cls-32" d="M779.16,337.93c-.72-1.45-.16-3.21,1.2-4.01s3.13-.24,3.85,1.2.16,3.21-1.2,4.01-3.13.24-3.85-1.2Z"/>
            <path class="cls-32" d="M779,333.68c-.8,1.85-1.28,4.34-2.81,4.18s-2.97-3.21-2.81-4.74,1.61-2.81,3.13-2.65,3.13,1.77,2.49,3.21h0Z"/>
            <path class="cls-32" d="M781.49,330.63c-1.77-.64-3.37-.64-3.45-1.85s1.36-2.25,3.13-2.49,3.37.64,3.45,1.85-.4,3.37-3.13,2.49Z"/>
            <path class="cls-32" d="M768.97,339.14c-.4-.88-.16-1.93.72-2.41.8-.48,1.85-.16,2.33.72s.16,1.93-.72,2.41-1.85.16-2.33-.72Z"/>
            <ellipse class="cls-32" cx="769.63" cy="329.13" rx="3.45" ry="2.01" transform="translate(65.61 781.91) rotate(-55.9)"/>
            <ellipse class="cls-32" cx="762.68" cy="301.67" rx="3.45" ry="2.09" transform="translate(85.29 764.09) rotate(-55.9)"/>
            <ellipse class="cls-32" cx="771.01" cy="333.59" rx="2.49" ry="2.09" transform="translate(-67.41 386.39) rotate(-27)"/>
            <path class="cls-32" d="M779.16,314.97c1.53-.48,2.57,1.85,3.93,2.81,3.21,2.17-1.28,2.73-2.81,3.21s-3.05-.4-3.53-1.93.88-3.61,2.41-4.09Z"/>
            <path class="cls-32" d="M783.98,342.11c-.4,1.2-1.53,1.61-2.41,1.61-3.77,0-3.53-1.53-.8-2.65,1.53-.64,1.53-1.93,2.41-1.61s1.28,1.45.8,2.65Z"/>
            <path class="cls-32" d="M776.27,320.19c1.04,1.2.96,3.05-.16,4.09s-2.97,1.12-4.01,0-.96-3.05.16-4.09,2.97-1.12,4.01,0Z"/>
            <path class="cls-32" d="M771.78,338.58c.16-1.2,0-2.65.96-2.81s2.17,1.28,2.25,2.25c.16.96-.48,1.85-1.36,2.01s-2.01-.48-1.85-1.45h0Z"/>
            <path class="cls-32" d="M767.76,313.04c1.85,0,3.45-.32,3.85.8s-.72,2.57-2.49,3.21-3.45.32-3.85-.8-.48-3.37,2.49-3.21Z"/>
            <ellipse class="cls-32" cx="782.65" cy="323.27" rx="3.13" ry="2.09" transform="translate(111.36 839.43) rotate(-60)"/>
            <ellipse class="cls-32" cx="769.68" cy="320.22" rx="3.45" ry="2.09" transform="translate(201.25 930.01) rotate(-69.6)"/>
            <ellipse class="cls-32" cx="775.97" cy="327.85" rx="3.13" ry="2.57" transform="translate(-20.54 602.05) rotate(-41.9)"/>
            <path class="cls-32" d="M779.72,284.62c2.09.72,4.74.88,4.74,2.65s-3.13,3.69-4.82,3.69-3.13-1.45-3.13-3.21,1.53-3.69,3.21-3.13h0Z"/>
            <path class="cls-32" d="M779.88,282.05c-1.28,1.61-2.01,3.29-3.29,2.89-1.2-.32-1.77-2.25-1.2-4.18s2.01-2.57,3.29-2.89c1.53-.4,3.29,1.69,1.2,4.18Z"/>
            <path class="cls-32" d="M772.66,296.02c-1.04.16-2.01-.64-2.17-1.69s.64-2.01,1.69-2.17,5.3-1.36,4.98,2.17c-.16,1.45-3.53,1.53-4.5,1.69h0Z"/>
            <ellipse class="cls-32" cx="784.65" cy="302.12" rx="2.33" ry="3.69" transform="translate(155.32 859.71) rotate(-62.6)"/>
            <path class="cls-32" d="M771.78,289.12c1.61-.96,2.97-.8,3.69-.32,3.13,2.09,1.36,3.45-2.01,3.13-1.93-.16-3.21,1.04-3.69.32s.4-2.17,2.01-3.13Z"/>
            <ellipse class="cls-32" cx="773" cy="284.53" rx="2.81" ry="3.37" transform="translate(-45.23 189.74) rotate(-13.6)"/>
            <circle class="cls-32" cx="745.44" cy="301.08" r="1.93"/>
            <path class="cls-32" d="M729.94,307.02c.88-.88,2.49-1.2,3.29-.32s.72,2.33-.16,3.21-1.93.48-3.05,0c-2.25-1.04-1.04-2.01-.16-2.89h.08Z"/>
            <path class="cls-32" d="M762.06,304.93c.96-.64,2.57,0,3.61,1.61s1.2,3.37.24,4.09c-.96.64-4.74-4.98-3.85-5.62h0v-.08Z"/>
            <ellipse class="cls-32" cx="785.09" cy="296.67" rx="2.25" ry="2.01" transform="translate(458.506 1069.7914) rotate(-87.8)"/>
            <path class="cls-32" d="M759.65,303.65c1.04,1.2.96,3.05-.16,4.09s-2.97,1.12-4.01,0-.96-3.05.16-4.09,2.97-1.12,4.01,0Z"/>
            <path class="cls-32" d="M778.92,297.07c1.85,0,3.37-.64,3.85.4s-.48,2.65-2.17,3.45-3.37.64-3.85-.4-.8-3.29,2.17-3.45Z"/>
            <path class="cls-32" d="M778.76,291.85c1.61-.64,3.29-1.61,4.26-1.12s1.12,2.17.32,3.69c-.8,1.53-2.33,2.33-3.37,1.77s-3.85-3.29-1.28-4.34h.08Z"/>
            <ellipse class="cls-32" cx="750.21" cy="302.35" rx="3.45" ry="2.09" transform="translate(205.32 900.12) rotate(-69.6)"/>
            <ellipse class="cls-32" cx="741.35" cy="304.1" rx="2.49" ry="3.13" transform="translate(208.27 902.35) rotate(-70.6)"/>
            <path class="cls-32" d="M772.9,313.69c1.45-.72,3.21,0,4.01,1.28s.16,3.13-1.28,3.77-3.21,0-4.01-1.28-.16-3.13,1.28-3.77Z"/>
            <path class="cls-32" d="M738.62,311.84c-1.36.56-2.81,1.69-3.61.88-.72-.8,0-3.13.88-3.93s2.25-.72,2.97.16.8,2.41-.32,2.89h.08Z"/>
            <path class="cls-32" d="M744.16,306.3c.64-1.69.72-3.37,1.93-3.45,1.2,0,2.25,1.36,2.41,3.21s-.72,3.37-1.93,3.45c-1.2,0-3.37-.48-2.41-3.21h0Z"/>
            <path class="cls-32" d="M731.23,301.8c.88-.4,1.93,0,2.41.8.48.88.16,1.85-.8,2.33-.88.4-1.93,0-2.41-.8-.48-.88-.16-1.85.8-2.33Z"/>
            <ellipse class="cls-32" cx="753.03" cy="308.63" rx="2.01" ry="3.45" transform="translate(65.24 743.66) rotate(-54.6)"/>
            <ellipse class="cls-32" cx="735.3" cy="305.7" rx="2.09" ry="2.49" transform="translate(-59.76 350.5) rotate(-25.8)"/>
            <path class="cls-32" d="M734.44,312.32c.32,1.2-.32,2.25-1.04,2.73-3.05,2.17-3.77.8-2.25-1.69.8-1.36.16-2.41,1.04-2.73s1.93.48,2.25,1.69Z"/>
            <path class="cls-32" d="M778.44,313.93c-5.94-1.53-10.12-.72-11.16-1.85-1.12-1.2,4.18-4.98,7.31-4.34,1.53.32,3.53,0,4.58,1.2s.8,5.38-.72,4.98h0Z"/>
            <path class="cls-32" d="M735.32,302.29c.56-1.04.88-2.49,1.77-2.41s1.61,1.93,1.45,2.81-1.04,1.61-1.93,1.45-1.77-1.04-1.36-1.93h.08v.08Z"/>
            <path class="cls-32" d="M761.66,312.16c-1.61.72-2.97,1.12-4.01.8-4.5-1.2.4-3.85,2.25-4.5,1.61-.64,3.29-.4,3.77.56s-.4,2.41-2.01,3.13h0Z"/>
            <ellipse class="cls-32" cx="740.92" cy="308.6" rx="1.77" ry="2.17" transform="translate(-22.03 557.8) rotate(-40.7)"/>
          </g>
        </g>
        <path id="Stomach" class="cls-18" d="M813.29,711.45c12.28-5.54,41.59-12.85,77.56-2.65,35.97,10.36,36.61,75.87,9.72,112.73-37.9,52.03-67.28,36.29-87.2,24.81-29.47-16.94-40.47-16.86-58.05-14.77-12.93,1.53-3.29,52.59,16.54,35.89,22.88-19.35,51.31-15.18,64.23,11.24,11.56,23.53-7.23,32.04-12.93,19.67-9.8-21.04-11.4-31.88-34.44-15.82-21.04,14.61-66.24.4-66.24-40.23s31.63-41.35,49.46-38.38c15.82,2.65,24.41,13.89,44.8,2.41,36.45-20.55-12.53-30.43-12.85-43.76-.24-13.25,2.01-20.63-5.38-24.57s-4.5-17.66,15.01-26.58h-.24Z"/>
        <path id="Esophagus" class="cls-16" d="M776.67,404.82s-1.61,81.5-.8,82.22.96,134.41,8.35,164.6c7.39,30.19,9.55,68.73,28.99,59.82,12.28-5.54-7.63,30.51-15.01,26.58-7.39-4.01-29.71-30.67-37.82-101.33-6.18-54.28-1.45-231.96-1.45-231.96h17.74v.08Z"/>
        <path id="UpperTube" class="cls-17" d="M642.27,310.39v-.96c.48-5.22,4.58-28.99,23.04-41.11,21.6-14.13,45.2-10.36,62.95,1.77,17.74,12.12,33.96,28.99,41.59,64.47,7.63,35.49,6.74,70.25,6.74,70.25h-18.47s5.46-72.58-20.55-90.57c-14.37-9.96-36.29-14.85-52.67-14.37-23.28.72-36.05,11.96-36.05,11.96l-6.66-1.45h.08Z"/>
        <g id="Pharynx">
          <path class="cls-13" d="M648.45,297.07c1.93-4.42,5.3-11.72,9.72-11.32s1.77,6.99-1.12,9.96c-3.69,3.77-4.42,10.04-7.39,12.28-2.97,2.33-4.09-.96-3.69-3.21s1.28-5.06,2.49-7.87h0v.16h0Z"/>
          <path class="cls-11" d="M664.03,279.88c-1.45-3.37,7.55-13.73,24.89-14.77,17.34-1.04,28.74,4.09,36.13,8.99,7.31,4.9,13.33,12.12,10.84,14.69s-7.39.96-12.28-2.97c-4.9-4.01-13.09-8.91-25.29-11.56-7.31-1.61-16.86.96-20.88,3.21-4.26,2.41-11,8.03-13.25,2.49h-.16v-.08Z"/>
          <path class="cls-14" d="M664.91,295.38c-2.17-4.01,7.07-11.88,16.14-13.09,13.09-1.93,19.03-.64,28.66,2.25,9.63,2.89,17.74,7.95,17.26,12.45s-4.82,2.41-9.8-1.04c-4.09-2.81-13.01-6.34-22.64-5.54-9.8.8-13.65,2.89-19.27,6.1-5.22,3.05-8.11,2.89-10.28-1.04h-.08v-.08Z"/>
          <path id="Esofagus" class="cls-26" d="M735.81,293.93c4.18-4.26,14.61-2.57,21.84,13.89,7.71,17.58,9.63,23.77,11.72,40.63,1.85,14.85,2.97,46.97,3.21,54.2,0,.8-.64,1.53-1.45,1.61l-8.75.56c-1.04,0-2.01-.8-2.01-1.85,0-4.5,0-15.66-.24-20.47-.4-6.02-.88-24.73-3.45-40.07-2.57-15.34-8.99-24.09-14.13-28.58-4.5-3.93-15.58-11-6.74-19.99h0v.08Z"/>
        </g>
        <path class="cls-10" d="M730.35,316.98c1.77.32,1.28,4.18,0,4.74,0,0-10.68,9.31-12.36,29.71,2.73,0,9.63,5.3,4.9,6.91l-11.16,1.12c-9.23.96-23.36.56-30.03-4.98-.8-.64-1.36-1.45-2.41-1.45l-1.2-.16c-2.01-3.53-5.3-9.55-9.47-13.65-2.41-2.73-5.3-4.26-9.07-3.37-.48,0-1.12,0-1.36-.4.32-.16.4-.4.56-.64-.24-.4-.32-.72-.16-1.12,3.05-.96,5.22-4.34,6.66-6.66.4-2.41,7.63-7.39,8.03-7.71,4.18-2.97,11.96-7.07,16.54-8.99,13.25-5.54,29.23-4.98,40.55,4.58v2.01h0v.08Z"/>
        <path class="cls-2" d="M731.87,303.57c1.45,3.05,3.45,4.9,5.7,6.99-3.77,2.57-7.23,6.26-7.23,6.26,0-1.04-1.04-1.36-1.85-2.01-15.5-12.2-33-8.03-48.98,1.69l-6.99,3.69c-4.01,1.53-5.7,6.5-5.86,7.23-.64,3.05-2.81,5.14-5.7,6.1l-2.33,1.2c-.64-.56-9.55-6.74-5.06-10.92,7.07-6.5,7.39-10.36-4.66-12.2,4.74-3.69,10.92-6.66,16.86-8.43,14.13-4.18,25.29-14.13,38.38-7.31,9.8,5.06,27.62,7.55,27.62,7.55h.16v.16h-.08Z"/>
        <path class="cls-25" d="M679.2,352.95l1.28,6.34c.72,3.53-.16,7.15-2.33,9.96-1.69,2.25-4.58,3.45-7.39,2.81-2.41-.56-4.26-2.65-5.22-5.3-2.73-7.71,4.58-16.62,4.09-25.29l4.98-.8,4.5,12.28h.08Z"/>
        <path class="cls-21" d="M674.7,340.66v4.34c0,.8-.48,1.12-1.2,1.36-1.2.4-1.85-3.69-3.93-4.9,0-2.33-.72-4.66-.4-7.15.48-.96,0-2.49,1.45-3.85,1.77,3.29,3.37,6.66,4.09,10.2h0Z"/>
        <path class="cls-5" d="M667.48,320.03c-1.77,0-4.01,0-5.54-1.12-2.41-1.53-2.49-4.42-.96-6.82,2.81-4.42,7.31-7.23,12.36-8.83,14.05-4.34,31.71-4.42,45.77.24,1.04.32,3.05,1.45,2.65,2.73-1.28,3.77-15.74-5.3-35.33,4.42l-19.03,9.31h.08v.08Z"/>
        <path class="cls-7" d="M671.81,325.41c0,1.77-.96,3.69-2.17,5.38-1.04-1.53-1.77-2.97-2.17-4.58-.48-2.01-.72-4.18-.32-6.26.4-2.49,1.04-4.82,2.09-7.23,1.77.4,2.65,2.01,2.57,3.77v9.07h0v-.16Z"/>
        <path class="cls-19" d="M730.27,321.72l.48.4c3.29,2.65,6.1,6.18,7.95,10.2,3.69,7.63-6.99,12.12-15.34,13.33-11.56,1.69-20.31,1.04-20.31,1.04-13.17-.48-19.83-10.6-28.02-12.61-1.85-.48-2.81-2.09-3.05-3.69s.48-3.21,2.17-4.26c9.31-6.26,20.23-10.04,31.55-10.76,8.99-.56,17.34,1.77,24.49,6.42h0l.08-.08Z"/>
        <g id="Sublingual_Gland" data-name="Sublingual Gland">
          <path id="LowerSaliva" class="cls-30" d="M719.91,351.99l-6.5,2.57c-1.61.72-2.89,1.69-4.34,1.85l-3.45.4c-1.53.16-3.37,0-4.98-.16-.8-1.77-1.2-4.74.16-6.18,1.28-1.28,2.65-2.01,2.41-4.01-.32-1.04.56-1.93,2.73-2.57,3.05-1.45,8.03-3.61,11.16-2.33,1.04-1.45,6.1,1.45,6.66,2.25.4.64.48.96-.24,1.61.56,1.45-1.2,2.01-1.77,2.81-1.12,1.61-.4,3.77.4,4.34,1.2.96-2.17-.72-2.17-.72h0v.16h-.08Z"/>
          <circle class="cls-32" cx="711.32" cy="344.68" r="2.25"/>
          <path class="cls-32" d="M713.32,348.69c0,1.53.64,3.37-.56,3.85s-3.21-1.12-3.61-2.33c-.4-1.12.16-2.41,1.36-2.89s2.81,0,2.89,1.28h-.08v.08Z"/>
          <path class="cls-32" d="M717.82,351.74c-1.45.16-3.21,0-3.69-.8s.16-2.01,1.45-2.73c1.2-.72,4.66-.48,5.14.32s-.64,2.89-2.89,3.21h0Z"/>
          <ellipse class="cls-32" cx="715.24" cy="346.05" rx="2.65" ry="1.61" transform="translate(27.7 744.3) rotate(-55.9)"/>
          <ellipse class="cls-32" cx="707.66" cy="347.83" rx="2.41" ry="1.45" transform="translate(22.89 738.8) rotate(-55.9)"/>
          <path class="cls-32" d="M707.22,350.14c.64-.48,1.77,0,2.49,1.12s.8,2.41.16,2.89-3.37-3.53-2.73-4.01h.08Z"/>
          <path class="cls-32" d="M705.62,349.26c.72.8.72,2.17,0,2.97s-2.09.8-2.81,0-.72-2.17,0-2.97,2.09-.8,2.81,0Z"/>
          <path class="cls-32" d="M719.02,344.6c1.28,0,2.41-.48,2.73.32s-.32,1.85-1.53,2.41-2.41.48-2.73-.32-.56-2.33,1.53-2.41Z"/>
          <path class="cls-32" d="M706.98,355.2c-1.12.48-2.09.8-2.81.56-3.21-.8.32-2.73,1.61-3.21,1.12-.4,2.25-.32,2.65.4s-.24,1.69-1.36,2.17h0l-.08.08Z"/>
        </g>
        <g id="Parotid_Gland" data-name="Parotid Gland">
          <path id="LowerSaliva-21" class="cls-30" d="M750.26,357.69l-2.41,1.85c-6.42,4.01-18.87,8.27-23.53,3.93-1.28-1.2-1.93-3.29-1.53-5.06.16-.72,1.61-4.01.64-4.58,0,0,2.17-.8,3.77-1.12l7.15-1.28c1.77-.32,3.21-1.85,4.26-3.13l6.34-6.91c2.01-2.25,4.42-3.37,7.47-2.33,2.09.72,3.77,3.29,4.01,5.94.24,3.37-1.36,6.42-3.45,9.07l-2.81,3.61h.08Z"/>
          <path class="cls-32" d="M734.44,359.69c-1.04,0-1.93-.8-2.01-1.85s3.13-5.22,4.09-5.3-.4,4.09-.32,5.14-.8,1.93-1.85,2.01h.08Z"/>
          <circle class="cls-32" cx="739.02" cy="359.77" r="3.21"/>
          <path class="cls-32" d="M746.89,341.79c-.96-.64,2.97-2.57,4.66-1.93s3.61,2.09,2.97,3.05c-1.2,1.77-4.34,1.2-7.63-1.12h0Z"/>
          <path class="cls-32" d="M749.78,345.32c.88-1.28,3.21,0,4.74-.16,3.85-.16.64,2.97-.24,4.26s-2.65,1.61-4.01.56-1.45-3.45-.56-4.66h.08Z"/>
          <path class="cls-32" d="M749.62,350.62c1.53.32,2.65,1.85,2.41,3.45s-1.69,2.65-3.21,2.33-2.65-1.85-2.41-3.45,1.69-2.65,3.21-2.33h0Z"/>
          <path class="cls-32" d="M738.7,349.42c1.53-1.04,2.57-2.33,3.53-1.69s.96,2.49,0,4.01c-.96,1.61-2.57,2.33-3.53,1.69s-2.41-2.41,0-4.01Z"/>
          <ellipse class="cls-32" cx="743.99" cy="356.6" rx="2.09" ry="3.45" transform="translate(-71.53 231.68) rotate(-16.9)"/>
          <path class="cls-32" d="M743.19,345.16c.72-1.45,2.49-2.09,3.93-1.45s2.01,2.33,1.28,3.77-2.49,2.09-3.93,1.45-2.01-2.33-1.28-3.77Z"/>
          <path class="cls-32" d="M725.37,356.8c5.22,3.21,8.99,3.53,9.96,4.9.88,1.45-4.18,3.69-6.91,2.17-1.36-.72-3.21-1.04-4.09-2.49s-.24-5.38,1.12-4.58h-.08Z"/>
          <path class="cls-32" d="M724.97,354.88c-.96-.64,2.97-2.57,4.66-1.93s3.61,2.09,2.97,3.05c-1.2,1.77-4.34,1.2-7.63-1.12h0Z"/>
        </g>
        <path id="Tongue" class="cls-8" d="M721.03,327.9c-5.46,3.93-14.45-2.41-33.24,2.73-2.73.72-5.78,1.12-8.35,0-1.04-.48-.96-2.25-.4-2.97.4-.64,1.12-1.53,2.25-2.01,10.52-4.5,21.84-6.5,33.32-5.86,3.85.24,8.03,1.53,8.35,4.34.16,1.53-.56,2.89-1.93,3.93h0v-.16h0Z"/>
      </g>
      <g id="ExternalOrgans">
        <g id="Layer_32" data-name="Layer 32">
          <path class="cls-12" d="M878.8,884.47c0-.72-51.79,32.76-101.97,29.79-50.18-2.97-96.75-19.83-96.75-19.83,0,0,2.73,119.95-.88,132.32-3.61,12.28,3.85,40.71,9.72,23.85,21.84-61.74,27.62,35.81,86.47,38.46,75.39,3.53,7.23.4,41.35,4.26,34.12,3.93,67.93-24.09,73.31-45.69,5.38-21.6-20.55-63.91-12.77-90.41,7.79-26.5,1.61-72.82,1.61-72.82h0l-.08.08Z"/>
        </g>
        <g id="Anus">
          <path class="cls-22" d="M799.32,1108.17c1.69,9.39,1.04,19.11-5.06,25.77,2.25,8.91,2.49,17.99-.4,26.58l-4.66,14.37c-2.25,6.82-.16,13.73-1.61,15.26-2.73,2.89-6.34,3.85-9.63,3.29-1.77-.32-3.45-.88-4.82-2.09s-2.17-3.37-2.25-5.54c-.24-8.27-2.25-15.82-5.14-23.2l-6.58-16.62c-2.41-6.02-3.21-12.77-3.61-19.51-.56-8.03,1.12-15.09,4.18-22,.4-2.33-.96-4.66-1.12-6.58l-1.04-1.53c-1.28-37.82,28.99-34.69,31.63-33.8.56.16.96.8,1.28,1.36.16-.4.48-.96.72-.88,1.04.24,35.73,28.26,8.11,45.12h0Z"/>
        </g>
        <path id="Ascending_Colon" data-name="Ascending Colon" class="cls-28" d="M688.35,903.58c1.36,6.34,1.04,13.97-1.2,19.99,3.85,5.3,3.77,13.01,2.01,19.43l1.12,3.37c.64,7.15-.24,14.21-2.57,21.12,1.77,7.15,1.45,14.37-1.2,21.68,0,2.81,0,5.46.16,8.27,1.36.16,1.12,1.45-.24,1.53-1.53,4.5-1.12,8.35,1.2,11.48.56,1.28,1.45,3.53.16,4.09v3.85c.72.64.88,1.69.48,2.65,5.22,9.63,6.02,24.73.8,29.63-.96.88-1.12,2.17-.64,3.21,0,0-4.42,4.26-6.58,5.14l-9.72,3.77c-4.66.72-10.12-1.93-13.33-5.86-3.69-4.34-5.06-10.44-5.38-16.38-5.46-5.54-7.71-19.19-4.26-26.42.96-1.93.4-3.13,0-4.98-1.45-6.74.16-13.57,3.05-19.67-2.65-8.35-1.36-17.26,3.69-23.85-3.53-6.66-2.73-16.78,2.09-22.16-3.77-5.7-3.77-13.01-.56-19.27-2.97-4.58-3.93-10.2-2.73-15.82l1.2-5.38c-2.57-6.66-3.13-13.73-1.77-20.8,7.95-17.02,34.36,21.36,34.36,21.36h0v.16h0l-.16-.16h0Z"/>
        <path id="Sigmoid_Colon" data-name="Sigmoid Colon" class="cls-4" d="M835.53,1119.41c-13.49-.16-17.5-3.93-20.8-7.79l-1.77-2.57c-4.18,3.61-9.23,2.89-13.57-.8,1.69,9.39-8.59-44.24-7.63-43.6l8.75,3.61c2.81.4,4.9,1.69,7.39,3.21,1.36.32,2.49.8,3.45,1.61h1.61l5.22,4.5c5.94,0,11.96,1.77,16.94,5.46,5.06-1.2,10.2-.64,15.26,1.53,4.5-2.65,8.67-6.02,12.36-10.28l3.69-2.57c2.57-4.34,5.38-8.35,8.83-11.8,1.77-5.22,4.34-10.36,8.11-13.89-.72-3.61,34.85-10.2,31.15-2.17,2.89,7.47,1.61,16.14-3.53,21.92-.8,8.51-4.18,16.54-9.72,21.84-3.29,8.51-7.71,15.26-15.9,15.9-4.5,8.75-12.36,15.34-21.04,12.93-5.86,7.55-17.5,9.47-22.88,1.45-2.17,1.04-4.01,1.36-5.78,1.36h0l-.16.16h0Z"/>
        <path id="Descending_colon" data-name="Descending colon" class="cls-34" d="M883.22,1046.02c-.72-3.61-7.95-5.7-4.82-9.31-1.36-6.02-2.09-9.07-2.09-9.07-3.93,0-1.12-9.15,0-13.33.32-1.36-6.02-10.68-4.82-13.17.64-1.45-.24-11-1.2-14.21-.48-1.77-.48-12.04,1.45-12.28,1.36-.24-2.09-10.92-1.28-13.57.4-1.45,2.09-10.36,1.45-11.64-.64-3.37-.96-6.58-1.2-9.96-1.45,0-1.45-3.05,0-3.45.8-3.21,3.85-5.46,3.53-5.78-.32-.32-1.61-9.96-1.36-10.44.64-1.36,2.01-4.42,1.36-5.22-.96-1.2.64-5.7,1.69-6.66-1.04-6.18-.96-12.53,0-19.19-3.61,5.86,5.94-12.85,12.28-12.61,2.89-5.94,20.23,4.66,17.26,9.15,2.09,3.53,2.89,7.39,1.61,11.4l-2.17,6.99c1.69,6.91.48,13.89-3.37,19.59,2.17,6.74,1.85,13.97-1.53,19.99,2.49,5.78,1.61,11.72-.8,17.02-1.04,1.53-.96,2.97-.4,4.58,2.17,6.58,1.61,13.65-1.36,19.75,5.46,4.82,7.07,13.01,4.09,20.07,5.54,3.29,8.35,9.55,7.79,16.46,6.66,4.82,8.91,14.85,5.14,22.88,2.89,7.47-34.93,5.7-31.15,2.17h.16-.16v-.16h-.08Z"/>
        <path id="Transverse_Colon" data-name="Transverse Colon" class="cls-33" d="M875.83,888.81c-3.61,5.86-9.31,8.27-15.09,8.83-.8,1.04-1.28,2.25-1.61,3.77l-1.12.16c.24.88,0,1.2-.32,1.77-3.05,3.77-11.8,4.66-15.26,1.28-.72.72-1.36,1.69-1.77,2.89h-1.2c.16.4.24.96,0,1.45-1.77,4.18-12.93,4.98-16.38,3.05-5.3,5.3-12.85,8.03-19.03,3.13-4.09,4.82-8.59,5.94-14.05,5.7-2.81,1.04-4.66.24-6.99-1.69-2.49,2.73-5.7,4.09-8.99,4.5-.56,1.45-1.2,1.93-2.01,1.36l-1.04.32c-2.17-1.69-4.42-2.89-6.99-3.61l-.24-1.28c-1.93-1.77-2.73-1.61-4.9-.16l-.8,1.12c-5.94-.32-12.93-1.2-16.86-7.31-8.03,5.38-13.81,4.09-17.66-2.25-6.74,4.9-15.9,2.33-20.63-4.66-.4.64-1.36.64-2.09.64-2.25,0-6.82-.16-7.55-2.73l-.96.8-4.09-2.41c1.36,6.34-35.73-14.37-34.36-21.36-2.09-7.71-.24-15.5,4.66-20.72,6.66-6.99,13.97-7.15,20.31-12.36,4.26-3.53,10.04-1.77,12.28,3.69,4.66,1.12,8.27,4.58,10.2,9.8,4.74.72,8.99,3.37,10.92,8.51,6.02-2.17,12.93-1.2,16.22,4.98,6.02-4.01,12.93-1.93,17.26,4.74,5.78-4.82,13.09-4.5,18.39,1.53,6.34-4.58,13.97-3.77,20.07,1.12,3.13,2.57,4.74-2.57,9.96-4.74l.72-.96c2.73,0,5.3.72,7.71,1.93,2.57-2.89,7.55-6.58,11.16-6.66.64,0,1.36.4,1.93.8,1.69,1.2,3.53,1.04,5.22-.48,3.77-1.53,7.39-3.45,11.48-2.65,1.45.32,2.41.16,3.29-1.2,3.05-4.82,7.71-8.11,12.85-8.03,1.61-7.23,7.87-9.47,14.13-9.23,2.89-5.94,8.99-8.59,14.29-5.78.56.32,1.04,1.2,1.69.96.4-.16.88-1.04,1.45-1.45,4.74-3.61,13.65-1.85,15.66,5.14,3.29-.48,6.1,1.12,8.19,3.69,2.17,2.49,2.97,6.5,2.41,10.2-.4,2.57.32,3.29,1.2,5.22,6.34,14.45-15.18,35.17-31.39,18.71h0l-.16.16h0v-.24h-.08Z"/>
        <path id="Layer_30" data-name="Layer 30" class="cls-9" d="M659.21,846.34c-1.04-.88-19.83-43.68-10.12-83.18,9.72-39.5,14.13-42.63,50.1-45.61,35.97-3.05,60.62,9.96,83.5,7.15,22.88-2.81,60.7-.8,65.52.64,4.5,1.36.8,18.07-2.17,21.6-8.67,10.52-24.81,36.61-39.82,51.79-17.66,17.82-56.77,4.18-73.95,17.74-17.18,13.57-40.63,14.69-52.59,24.81-11.96,10.12-14.05,10.52-20.47,4.98h0v.08Z"/>
        <g id="Pancreas">
          <path class="cls-23" d="M751.62,833.17c6.34-6.34,14.61-2.89,19.67-5.7,4.98-2.89,12.93-1.36,17.99-1.36s14.05,5.86,17.1,4.18,16.46,1.93,21.52,1.12,12.93,4.34,16.7,2.81c3.77-1.61,5.22,1.45,10.44-.48s11.64-1.45,6.42,4.66c-5.22,6.1-20.88,9.15-23.04,11.72-2.17,2.49-11.8-1.69-15.98,1.61s-13.81-3.05-16.86.64-8.03-.32-12.36,4.09c-4.34,4.5-5.14.96-8.51,5.62s-10.44,6.99-20.15,8.75c-9.15,1.69-12.04-8.19-13.73-12.85s-5.46-18.47.8-24.81h0Z"/>
          <path class="cls-31" d="M758.53,833.49c4.98-2.73,10.28-3.45,16.38-3.13,6.1.32,17.02,3.77,22.24,3.93s9.63-2.09,14.53-.64,10.68,2.49,15.58,3.69-4.09,2.49-10.6.56c-6.42-1.93-15.98-2.49-18.87-.8s-15.5-3.45-19.03-1.2-14.37-4.09-19.27,0c-4.82,4.09-4.9-.56-1.28-2.57h0l.16.16h.16Z"/>
        </g>
        <path id="Gallbladder" class="cls-6" d="M702.16,839.27c-13.49-4.34-11.08-13.57-9.15-24.09,2.41-13.09,12.04-21.76,29.55-24.41,17.5-2.65,16.78,6.91,20.72,2.73,7.31-7.63,13.57-11.88,16.54-14.61,4.42-4.26,8.35-2.41,3.53,1.45-4.01,3.13-11.88,8.75-15.82,13.65-5.78,7.07,3.37,12.12.32,16.62-.4.56-14.45,2.73-16.54,6.82-3.77,7.47-7.23,11.96-7.07,15.01s-1.85,13.33-22,6.82h-.08Z"/>
        <path id="Liver" class="cls-3" d="M847.97,725.5c3.77,1.04,2.33,14.85-1.12,20.96-3.45,6.1-24.49,42.07-50.34,41.19-25.85-.88-64.07-9.8-85.75,7.95-21.6,17.74-36.29,50.1-40.79,52.91-4.5,2.81-8.03.72-11.16-2.17-3.13-2.89-13.49-32.76-12.53-68.17.56-20.55,9.96-45.85,15.98-52.03,3.85-3.85,24.25-14.21,63.83-8.19,32.68,4.98,50.5,7.71,71.54,5.54,21.04-2.17,42.31-.4,50.26,1.85h0v.16h.08Z"/>
        <path id="Hepatic_flexure" data-name="Hepatic flexure" class="cls-27" d="M653.67,870.75c2.97-15.5,19.03-16.46,25.29-21.6,4.26-3.53,10.04-1.77,12.28,3.69,4.66,1.12,8.99,4.34,10.2,9.8,2.25,9.63-52.35,31.63-47.85,8.27h0v-.16h.08Z"/>
        <path id="Splenic_Flexure" data-name="Splenic Flexure" class="cls-27" d="M878.56,847.38c.4-.16.88-1.04,1.45-1.45,4.74-3.61,13.65-1.85,15.66,5.14,3.29-.48,6.1,1.12,8.19,3.69,2.17,2.49,2.97,6.5,2.41,10.2-.4,2.57.64,3.21,1.2,5.22,7.79,28.99-44.48-16.14-28.66-22.72h-.24v-.08Z"/>
        <path id="Ileum" class="cls-29" d="M688.27,1020.97c28.66-8.19,35.17,10.12,15.01,7.79-7.07-.8-9.39.96-9.72,1.45-4.09,5.54-15.42-1.28-5.3-9.23h0Z"/>
        <path id="Appendix" class="cls-24" d="M688.51,1053.89l4.18,9.55c2.17,4.74,2.81,10.28,2.73,15.74,0,0,1.04,12.36-.32,17.02-.64,2.41-3.61-2.57-3.77-4.98l-.8-14.37c-.32-5.38-1.45-9.8-4.18-14.05-1.12-1.69-2.25-3.13-4.5-3.77,0,0-1.93-11,6.58-5.14h.08Z"/>
        <g id="Ileocecal_Valve" data-name="Ileocecal Valve">
          <ellipse class="cls-12" cx="686.01" cy="1028.18" rx="3.61" ry="2.89" transform="translate(-316.63 305.36) rotate(-20.5)"/>
        </g>
        <path id="Ileum1" class="cls-1" d="M862.66,1074.12c-10.28,6.91-25.69,7.95-34.12-2.65l-2.33-.88c-4.66.48-9.31,2.09-13.81,4.66l-1.61-.48c-1.36.64-3.29-.16-4.58-.96,0,0-17.42-4.58-18.15-4.18l1.04-6.42c5.62-5.3,13.89-13.97,21.28-9.23,3.05,3.37,4.34,1.53,7.55,0,5.54-6.91,6.26-2.01,12.85,1.69,6.18,4.82,12.45,8.11,18.39,5.7h.24-.24c-2.49,0-5.22-1.12-6.58-2.97l-4.74-9.96c-1.53-3.21-3.77-4.82-6.99-5.54-5.38-1.12-10.12,1.45-12.61,6.91-1.45,3.13-4.34,4.01-6.99,2.57-8.83-4.82-12.53,2.89-19.75.32-3.85-1.36-5.86-5.54-5.94-10.6-2.17,4.09-5.38,4.9-9.63,4.5-6.99-.64-4.9-8.03-7.55-18.15-2.65-10.28,12.04-14.05,20.72-10.92,6.18,2.25,10.52,8.43,12.45,15.42.32,1.04.56,1.93,1.53,2.57,3.45-7.07,9.63-11.48,16.46-12.04,11.32-.96,28.42,8.27,36.85,17.02.8.88.96,2.57,2.01,2.65-.88-7.71-6.42-14.53-12.93-17.74-11.72-5.7-32.28-10.04-40.47,4.58-.96.8-1.45,1.04-2.17,0-3.13-13.57-14.37-16.94-24.97-13.57-.56,0-.88-.24-1.2-.64-6.82,5.62-14.93-1.04-23.69-1.77l-19.03-1.69c-9.63-.88-18.55-4.09-27.54-7.55-.96-.32-1.93-.16-2.25.56-.4.96,0,2.09.96,2.57,20.8,10.12,35.25,5.94,51.15,9.96,15.9,4.01,8.99,4.42,10.44,10.2s.16,10.92-2.65,14.61c-4.82,6.42-18.71,7.07-27.22,4.58,2.97,5.38,5.14,11.24,6.5,17.42,1.69,5.62,3.69,11,5.94,16.14,3.37,3.37,3.29,1.12-.24-6.5-2.17-7.07-3.45-13.49.56-20.39,4.34-7.47,15.74-9.15,19.91-6.99,5.54,2.89,11.8,10.2,15.58,15.58l-.64,6.66c-5.3-1.04-15.17-7.23-23.28,11.88-2.57,5.86-3.37,12.45-2.97,18.87-19.27,1.85-26.58-9.8-31.8-30.35-4.5-17.82-11.56-29.31-26.42-35.89-2.25-.96-4.34-2.25-6.66-1.53-1.2-3.45-3.45-6.42-6.1-8.67,0-1.28,0-2.33.16-3.13v-4.66c3.21-.96,7.15-.16,10.44.56,9.63,2.17,19.03,7.47,26.82,15.09l17.5,2.65c2.33.64,4.74,1.53,6.99.8.72-.24.64-2.17.16-2.65-.32-.4-.8-1.28-1.53-1.45-7.79-2.25-15.5-3.77-23.61-4.34-8.27-7.15-17.66-11.08-27.86-11.72-4.74-.32-8.83-4.09-9.07-9.55l-.16-4.34.24-1.53c.8-5.38,3.45-9.63,7.23-12.77,2.25,6.5,7.55,9.47,12.85,7.23,3.13-1.28,6.34-1.36,9.47.24,6.91,3.69,13.33,3.21,21.76,2.97,1.85,0,10.6-2.81,16.54-3.45,5.3-.56,12.77.24,17.42,1.69-8.03-6.34-21.76-4.42-31.71-1.36-7.55,2.41-15.01,1.85-22.16-1.85-3.93-2.01-7.55-2.41-11.72-.8-3.85,1.53-7.79.4-10.12-3.53-3.37-5.78-5.22-12.53-4.42-19.67l2.25-20.8c.56-5.38,0-10.12-2.25-14.77-4.01-8.83-5.86-19.11-.24-26.34,3.21,1.28,11.96,13.17,11.96,13.17-1.2,0,1.04,28.9,8.99,48.25,2.17,5.06,7.31,7.31,12.04,8.83,6.91,2.17,13.33.16,18.87-5.06,8.91-8.43,16.46-3.13,24.41,5.22,6.42,8.19,22.72,25.77,23.28,24.49l.88-.56c5.14,1.12,10.36,1.77,15.66,1.93,22.4-2.73,49.86-5.22,64.71,19.35,9.63,17.74,5.3,41.91-10.52,52.59h0l.16-.24v.16h0Z"/>
        <path id="Jejunum" class="cls-1" d="M869.81,924.14c-1.2-4.9-7.15-20.8-10.92-22.32-.32-.16-.72-.16-1.04-.24-4.09,4.09-10.76,5.86-15.5,1.77-1.93.64-2.09,2.89-3.05,4.09,5.3,6.18,9.72,13.33,12.12,21.92,1.69,5.7,2.65,12.77-.72,13.25-1.36.16-2.33-1.04-2.81-2.65l-4.5-15.09c-1.93-4.34-4.74-8.27-8.91-9.63-6.58-2.25-13.65,1.12-17.5,7.71-2.01,3.37-1.28,6.82.56,9.96,3.77,6.42,6.5,13.41,6.34,21.44l-.24,11.64c0,5.38,3.21,9.07,7.63,10.12l14.85,3.37c1.04.24,1.69,1.36,1.61,2.25-.16,2.65-3.05,2.49-6.5,1.2-8.75-3.29-19.59-4.58-28.26-.16l3.77-7.95c3.21-6.82,4.66-14.69,4.26-22.48-.48-10.12-4.42-18.47-11.24-24.25-6.26-5.38-13.81-7.95-21.44-5.62-8.83,2.65-14.61,12.36-13.17,23.04.32,2.49,1.93,4.9,3.29,8.91-2.97-6.99-8.83-8.59-6.91-15.98l1.61-6.1c.64-2.41.24-5.06-1.04-6.91-1.28-1.77-3.29-2.57-5.14-3.37l-3.21-1.28c-.8-1.85-3.85-1.69-4.9-.16-6.02-.24-14.45-1.2-17.5-8.03-2.57,2.09-4.98,3.45-8.27,3.69-2.25,10.52,1.28,21.36.16,28.5-.16.96-1.53,2.49-2.25,1.45-1.53-2.17-1.45-5.38-1.36-8.19.24-7.71,0-15.09-1.45-22.48-1.77-1.28-3.13-2.65-4.42-4.74-6.58,5.62-15.34,2.97-20.63-4.09-3.45,1.28-6.66.16-9.88-1.12-5.7,7.23.96,24.57,12.36,12.85,2.49-2.49,8.27,10.44,7.87,22.56l-.4,13.41c-.24,7.23,2.73,13.01,8.19,15.98,6.91,3.69,15.17,3.37,21.2-2.57,6.5-6.42,6.82-21.12,7.31-31.8,0-1.28.32-3.85,1.77-3.77,2.97.16.96,17.34-.24,24.65-.56,3.37.96,6.26,3.77,6.91,4.09.88,7.55,2.89,10.84,5.78l9.55,8.51c0,.48.16,1.04.32,1.61.56,1.77,2.09,3.77,4.09,4.66,3.69,1.69,7.55.32,10.68-2.65,7.71-7.55,8.67-19.99,5.62-31.23-.32-1.36-.8-3.85.24-4.66,3.37-2.81,5.54,10.36,4.34,20.31-.88,7.39-4.09,13.49-8.75,18.23.24,1.45-4.74,3.21-6.58,5.14-.16.16,1.2,3.37,1.2,3.69,2.57,2.57,5.7,4.09,9.23,4.98,14.85,4.09,27.86-2.33,38.14-.88l22.8,3.29c4.09.56,7.07-1.36,9.47-5.54,4.09-7.15,3.85-17.58-1.36-24.09-5.78-7.39-17.02-1.85-24.09-12.77-4.09-6.26-7.95-13.33-8.91-21.52,2.73,3.93,3.61,8.59,5.54,12.61,1.85,3.69,3.69,6.99,6.34,9.8,6.42,6.58,18.39,6.74,22.72.16,2.41-3.53,3.93-8.11,3.93-12.61v-6.82l-.16-3.45c.24-.32.4-.64.56-1.04.8-1.93-.64-8.43-1.2-10.92h0l.16-.24h0ZM779.8,959.55c.16,1.12.24,2.17.24,3.13,0-1.12-.16-2.25-.24-3.13-.4-2.17-.88-3.93-1.36-5.46.64,1.53,1.12,3.37,1.36,5.46Z"/>
        <path id="Cecum" class="cls-3" d="M685.38,1033.01s2.25,4.26,2.81,7.55-.56,6.66-1.77,8.03.96,3.53,2.65,1.69,3.69-3.21,3.61-9.96-.8-7.07-.88-8.11-.96,1.61-2.73.56-2.89-1.04-3.69.24h0Z"/>
      </g>
    </g>
  </g>
</svg>