<?xml version="1.0" encoding="UTF-8"?>
<svg id="Body" xmlns="http://www.w3.org/2000/svg" xmlns:xlink="http://www.w3.org/1999/xlink" viewBox="0 0 444.55 374.42">
  <defs>
    <style>
      .cls-1 {
        fill: #c62f00;
      }

      .cls-2 {
        fill: #383838;
      }

      .cls-3 {
        filter: url(#drop-shadow-1);
      }

      .cls-4 {
        fill: #a85547;
      }

      .cls-5 {
        fill: #b75f51;
      }

      .cls-6 {
        fill: none;
        stroke: #fff;
        stroke-linecap: round;
        stroke-miterlimit: 10;
        stroke-width: 12px;
      }

      .cls-7 {
        fill: #5e7726;
      }

      .cls-8 {
        fill: #e09978;
      }
    </style>
    <filter id="drop-shadow-1" x="58.55" y="72.21" width="243" height="244" filterUnits="userSpaceOnUse">
      <feOffset dx="0" dy="7"/>
      <feGaussianBlur result="blur" stdDeviation="5"/>
      <feFlood flood-color="#000" flood-opacity=".2"/>
      <feComposite in2="blur" operator="in"/>
      <feComposite in="SourceGraphic"/>
    </filter>
  </defs>
  <g class="cls-3">
    <circle class="cls-7" cx="180.52" cy="187.22" r="106.01"/>
  </g>
  <path class="cls-6" d="M176.17,251.05v-14.25c0-3.84-3.11-6.96-6.96-6.96h-6.18c-3.84,0-6.96-3.11-6.96-6.96v-1.99c0-3.84,3.11-6.96,6.96-6.96h25.84c3.84,0,6.96-3.11,6.96-6.96v-.44c0-3.84-3.11-6.96-6.96-6.96h-45.5c-3.84,0-6.96-3.11-6.96-6.96v-1.77c0-3.84,3.11-6.96,6.96-6.96h62.28c3.84,0,6.96-3.11,6.96-6.96v-4.42c0-3.84-3.11-6.96-6.96-6.96h-47.26c-3.84,0-6.96-3.11-6.96-6.96v-7.29c0-3.84,3.11-6.96,6.96-6.96h29.82c3.84,0,6.96-3.11,6.96-6.96v-14.02"/>
  <path class="cls-1" d="M444.55,187.22c-68.21,38.45-137.37,76.2-210.88,103.6-16.2,5.59-32.79,11.16-50.02,12.31-64.04,2.55-119.76-51.87-118.98-115.92-.77-64.05,54.93-118.47,118.98-115.92,17.23,1.15,33.82,6.72,50.02,12.31,73.51,27.41,142.67,65.16,210.88,103.61h0ZM444.55,187.22c-51.25-28.73-103.42-55.95-156.98-80.12-29.97-12.88-79.38-35.37-111.27-34.06-60.1,1.57-110.52,54.07-109.63,114.19-.88,60.12,49.51,112.62,109.63,114.19,9.71.58,19.36-1.19,28.83-3.48,28.45-7.22,55.61-18.77,82.44-30.58,53.56-24.18,105.73-51.4,156.98-80.13h0Z"/>
  <path class="cls-4" d="M444.55,187.22c-60.9,41.24-203.26,132.62-275.06,124.68-63.28-4.82-114.77-60.99-114.08-124.47-.81-69.65,59.46-128.29,129.09-125.3,25.64,1.83,49.92,11.42,73.46,21.07,65.47,28.33,126.87,65.24,186.6,104.02h0ZM444.55,187.22c-60.13-38.01-121.89-74.14-187.39-102.11-23.34-9.41-47.48-18.71-72.78-20.44-68.06-2.74-126.91,54.67-125.97,122.76-.9,61.91,49.58,117.17,111.32,121.91,70.1,8.21,214.11-82.11,274.83-122.12h0Z"/>
  <path class="cls-5" d="M444.55,187.22c-63.97,48.99-171.42,123.73-250.94,134.78-10.68,1.34-21.55.95-32.2-.53C40.22,303.1,2.58,148.55,102.04,76.68c30.64-21.95,70.72-30.44,107.44-21.5,46.78,11.26,89.37,34.94,130.34,59.41,36.2,22.27,71.22,46.48,104.72,72.63h0ZM444.55,187.22c-63-46.63-174.31-122.04-251.29-131.5C116.88,47.4,48.02,110.52,48.89,187.21c-.88,76.68,67.95,139.82,144.34,131.51,77.35-9.71,187.83-84.68,251.31-131.51h0Z"/>
  <path class="cls-8" d="M444.55,187.22c-62.5,57.44-158.78,133.9-243.32,148.84-39.58,6.32-81.3-5.22-112.83-29.77-45.9-34.81-68.16-96.92-54.63-152.95C50.18,79.01,125.39,26.08,200.94,38.42c82.69,14.96,181.6,92.79,243.6,148.8h0ZM444.55,187.22c-61.69-53.85-163.12-131.97-244.11-145.65C126.61,30.08,53.45,81.51,37.59,154.21c-12.93,54.84,8.21,114.94,53.04,149.2,35.16,27.75,83.27,37.89,126.56,26.17,79.62-21.2,165.95-87.92,227.36-142.37h0Z"/>
  <path class="cls-7" d="M444.55,187.22c-81.55,101.72-237.92,226.08-364.65,126.21C.56,248.93.07,126.92,78.92,61.81c36.77-30.89,87.52-43.99,134.62-34.51,88.24,18.04,172.84,93.78,231.01,159.92h0ZM444.55,187.22c-31.39-35.58-66.49-68.03-104.61-96.27C261.3,32.57,165.95-4.91,80.67,63.91,3.47,127.72,3.94,248.11,81.62,311.32c125.61,98.92,280.76-24.38,362.92-124.1h0Z"/>
  <path class="cls-2" d="M444.55,187.22c-58.18,94.84-156.96,183.12-274.67,177.47C10.89,353.61-55.43,158.77,63.99,53.06,102.38,19.2,155.59,3.86,206.16,11.15c99.59,13.97,183.64,96.2,238.39,176.07h0ZM444.55,187.22c-43.04-62.07-98.32-118.31-166.42-152.35C195.55-6.92,96.72,5.59,39.54,82.15c-82.97,112.2-8.88,271.96,130.44,280.87,117.16,6.03,215.95-81.85,274.57-175.81h0Z"/>
</svg>