<?xml version="1.0" encoding="UTF-8"?>
<svg id="Layer_1" data-name="Layer 1" xmlns="http://www.w3.org/2000/svg" xmlns:xlink="http://www.w3.org/1999/xlink" viewBox="0 0 1280 1280">
  <defs>
    <style>
      .cls-1 {
        fill: #844239;
      }

      .cls-2, .cls-3, .cls-4, .cls-5 {
        font-family: ArialMT, Arial;
      }

      .cls-2, .cls-6, .cls-7, .cls-8 {
        fill: #942900;
      }

      .cls-2, .cls-9 {
        font-size: 24px;
      }

      .cls-10 {
        fill: #cc7764;
      }

      .cls-11 {
        letter-spacing: -.04em;
      }

      .cls-3 {
        font-size: 28px;
      }

      .cls-3, .cls-4, .cls-5, .cls-9 {
        fill: #fff;
      }

      .cls-12 {
        stroke-width: 4px;
      }

      .cls-12, .cls-13, .cls-14, .cls-15, .cls-16, .cls-17, .cls-18, .cls-19, .cls-20 {
        fill: none;
        stroke-miterlimit: 10;
      }

      .cls-12, .cls-13, .cls-17 {
        stroke: #e09978;
      }

      .cls-12, .cls-18, .cls-20 {
        stroke-dasharray: 15;
      }

      .cls-21 {
        fill: #512924;
      }

      .cls-22 {
        fill: #893724;
      }

      .cls-23 {
        fill: #c6a58d;
      }

      .cls-24 {
        letter-spacing: -.04em;
      }

      .cls-13, .cls-14, .cls-19 {
        stroke-width: 13px;
      }

      .cls-25 {
        letter-spacing: -.04em;
      }

      .cls-7 {
        font-size: 27px;
      }

      .cls-7, .cls-8, .cls-9 {
        font-family: Arial-BoldMT, Arial;
        font-weight: 700;
      }

      .cls-26 {
        fill: #d37b72;
      }

      .cls-27 {
        fill: url(#linear-gradient-4);
      }

      .cls-28 {
        letter-spacing: -.06em;
      }

      .cls-4 {
        font-size: 31px;
      }

      .cls-29 {
        letter-spacing: -.07em;
      }

      .cls-30 {
        fill: url(#linear-gradient-3);
      }

      .cls-31 {
        fill: url(#linear-gradient-5);
      }

      .cls-14 {
        opacity: .64;
      }

      .cls-14, .cls-18 {
        stroke: #000;
      }

      .cls-32, .cls-33, .cls-34, .cls-35 {
        isolation: isolate;
      }

      .cls-15, .cls-16 {
        stroke: #c6a58d;
      }

      .cls-15, .cls-17 {
        stroke-width: 12px;
      }

      .cls-33 {
        fill: url(#linear-gradient);
      }

      .cls-33, .cls-34, .cls-35 {
        opacity: .6;
      }

      .cls-36, .cls-35 {
        fill: #fde1d4;
      }

      .cls-37 {
        fill: #b75f51;
      }

      .cls-38 {
        letter-spacing: -.06em;
      }

      .cls-39 {
        letter-spacing: -.07em;
      }

      .cls-16 {
        stroke-width: 14px;
      }

      .cls-40 {
        fill: #d0291e;
      }

      .cls-8 {
        font-size: 28.02px;
      }

      .cls-41 {
        fill: #c69a6c;
      }

      .cls-42 {
        fill: #a54a3c;
      }

      .cls-43 {
        letter-spacing: -.04em;
      }

      .cls-44 {
        fill: #e37b65;
      }

      .cls-45 {
        fill: #742e1a;
      }

      .cls-18 {
        opacity: .49;
      }

      .cls-18, .cls-20 {
        stroke-width: 5px;
      }

      .cls-5 {
        font-size: 32.47px;
      }

      .cls-19, .cls-20 {
        stroke: #942900;
      }

      .cls-46 {
        fill: #eacab3;
      }

      .cls-47 {
        fill: #9e5a39;
      }

      .cls-34 {
        fill: url(#linear-gradient-2);
      }

      .cls-48 {
        letter-spacing: -.04em;
      }

      .cls-49 {
        opacity: .48;
      }

      .cls-50 {
        fill: #e09978;
      }
    </style>
    <linearGradient id="linear-gradient" x1="727.64" y1="-709.75" x2="727.64" y2="-520.89" gradientTransform="translate(0 1306.7683)" gradientUnits="userSpaceOnUse">
      <stop offset="0" stop-color="#feede5"/>
      <stop offset=".5" stop-color="#fde1d4"/>
      <stop offset="1" stop-color="#fbc8b4"/>
    </linearGradient>
    <linearGradient id="linear-gradient-2" x1="695.27" y1="-990.96" x2="695.27" y2="-676.35" xlink:href="#linear-gradient"/>
    <linearGradient id="linear-gradient-3" x1="569.53" y1="-1103.73" x2="569.53" y2="-1081.98" xlink:href="#linear-gradient"/>
    <linearGradient id="linear-gradient-4" x1="613.82" y1="-1123.38" x2="613.82" y2="-1099.76" xlink:href="#linear-gradient"/>
    <linearGradient id="linear-gradient-5" x1="609.69" y1="-1107.94" x2="609.69" y2="-1090.78" xlink:href="#linear-gradient"/>
  </defs>
  <g id="HumanBody" class="cls-32">
    <g id="SideBody">
      <path id="BodyBase" class="cls-23" d="M1044.4,1090.5c-9.97,1.72-20.99-4.95-26.61-18.97-5.77-14.47-14.47-24.89-12.82-19.87,1.65,5.02.97,20.24,1.42,29.46.52,9.37,2.02,35.38,3.52,49.03,1.5,13.72,6.67,43.48-1.05,45.43-7.8,2.02-12.59-27.44-14.54-36.36-1.5-6.82-5.92-37.41-7.95-46.93,0-.3-.52-.22-.45.07,1.5,13.72,5.77,61.62,6.45,68.52.82,8.47,1.5,26.84-3.3,27.66-8.25,1.42-9-8.55-11.17-20.99-2.17-12.44-4.42-32.69-5.77-41.31-.9-5.92-2.1-28.11-2.7-33.51,0-.22-.37-.22-.37,0,.15,7.57.6,36.43.9,46.03.22,6.6,2.1,33.13-6.07,35.68-8.17,2.55-10.35-22.04-10.8-29.76-.3-6.15-1.5-44.9-1.95-54.65,0-.67-.97-.75-1.12-.07-1.2,5.1-1.95,30.51-2.4,34.48-.67,5.77.6,16.27-1.87,22.41-2.47,6.15-9.9,4.12-10.94-4.65-.97-8.77-1.87-26.01-2.62-37.71-.6-8.62-1.35-18.89-2.47-26.69-.82-5.85-5.62-26.99-5.85-58.62-.22-31.64,2.92-44.23-1.2-68.97-4.12-24.74-47-138.39-53.45-178.57-6.45-40.18.3-78.49-10.57-109.3-10.35-29.39-12.37-30.89-14.32-48.8-3.37,34.18-14.92,94.53-25.26,150.76-6,32.39,57.2,129.84,65.07,232.99,13.12,172.57-34.48,371.9-31.11,401.07s-17.17,70.99-15.74,83.96c1.35,12.97,23.01,55.25,13.64,124.07-9.37,68.82-29.69,190.79-30.14,214.4-.45,23.61,8.02,44.23,5.92,53-2.1,8.77-4.35,7.8-.3,18.67,4.05,10.79,5.47,37.11,18.44,46.03,12.97,8.92,30.21,23.39,28.71,30.89-1.57,7.5-3.97,13.72-7.95,12.67-3.97-1.05-3.3,8.25-13.94,6.9-10.57-1.35-7.8,10.5-18.14,6.6-10.35-3.9-8.62,5.7-23.84.75-15.22-4.95-10.8,7.8-28.04,3.45-17.24-4.42-10.5-19.42-14.84-27.06-4.35-7.65-11.39-25.94-8.77-34.56,2.62-8.62,5.1-22.56,2.62-28.26-2.47-5.7-7.12-15.14-2.4-24.74,4.65-9.6,2.85-4.2,2.62-15.44s-1.12-108.4-5.32-146.78c-4.2-38.38-17.32-58.47-20.54-98.06-3.22-39.51,2.85-72.87,1.8-101.13-1.12-28.26-14.77-47.08-9.07-107.95,5.7-60.87-4.05-117.77-12.37-165.22-8.32-47.53-23.69-137.11-11.02-185.99-11.39,7.2-13.79,3.52-13.79,3.52,0,0-3.07,4.2-14.39-4.05,12.59,48.88-3.3,139.06-11.62,186.51-8.32,47.45-18.07,104.35-12.37,165.22,5.7,60.87-7.95,79.69-9.07,107.95-1.12,28.26,5.02,61.62,1.8,101.13-3.22,39.51-16.34,59.6-20.54,98.06-4.2,38.38-5.1,135.54-5.32,146.78-.22,11.24-2.02,5.85,2.62,15.44,4.65,9.6,0,19.04-2.4,24.74-2.47,5.7,0,19.64,2.62,28.26,2.62,8.62-4.42,26.91-8.77,34.56-4.35,7.65,2.4,22.64-14.84,27.06-17.24,4.42-12.82-8.4-28.04-3.45-15.22,4.95-13.57-4.57-23.84-.75-10.27,3.82-7.5-7.95-18.14-6.6-10.57,1.35-9.9-7.95-13.94-6.9-4.05,1.05-6.37-5.17-7.95-12.67-1.57-7.5,15.67-22.04,28.71-30.89,12.97-8.92,14.39-35.16,18.44-46.03,4.05-10.79,1.72-9.9-.3-18.67-2.1-8.77,6.37-29.39,5.92-53-.45-23.61-20.77-145.58-30.14-214.4-9.37-68.82,12.22-111.1,13.64-124.07,1.35-12.97-19.12-54.8-15.74-83.96,3.37-29.16-46.85-228.8-31.11-401.07,8.85-96.26,71.82-200.61,65.82-232.99-10.42-56.22-22.64-116.57-26.01-150.76-2.02,17.84-3.97,19.42-14.32,48.8-10.87,30.81-4.12,69.12-10.57,109.3-6.45,40.18-49.33,146.33-53.45,171.07s-.97,44.83-1.2,76.47-4.95,52.7-5.85,58.62c-1.12,7.8-1.87,18.07-2.47,26.69-.75,11.77-1.65,29.01-2.62,37.71-.97,8.77-8.47,10.8-10.94,4.65-2.47-6.15-1.2-16.57-1.87-22.41-.45-3.97-1.2-29.39-2.4-34.48-.15-.67-1.12-.6-1.12.07-.45,9.75-1.65,48.5-1.95,54.65-.37,7.72-2.7,32.24-10.8,29.76-8.1-2.47-6.3-29.01-6.07-35.68.3-9.6.75-38.53.9-46.03,0-.22-.37-.3-.37,0-.67,5.4-1.8,27.59-2.7,33.51-1.35,8.62-3.6,28.86-5.77,41.31-2.17,12.44-2.92,22.41-11.17,20.99-4.8-.82-4.12-19.27-3.3-27.66.67-6.9,4.87-54.8,6.37-68.52,0-.3-.37-.37-.45-.07-2.02,9.52-6.37,40.11-7.95,46.93-1.95,8.92-6.75,38.38-14.54,36.36-7.8-2.02-2.55-31.71-1.05-45.43,1.5-13.64,3-39.58,3.52-49.03.52-9.22-.15-24.44,1.42-29.46,1.65-5.02-7.05,5.4-12.82,19.87-5.55,14.09-16.57,20.69-26.61,18.97-10.94-1.87-2.77-9.22,9.82-26.91,6.75-9.52,14.32-36.06,24.14-53.6,9.82-17.54,23.16-18.29,30.96-41.46,7.72-23.16,3.07-71.29,10.35-151.36,7.27-80.14,24.66-94.91,30.14-108.85,5.47-13.94,10.05-29.39,10.72-47.38.67-17.92,3.15-85.69,6.45-101.8,3.3-16.12-3.22-34.48.22-76.47,3.45-42.06,22.94-78.71,69.72-91.08,37.11-9.82,82.24-20.69,112.22-47,11.99-10.57,9-49.93,8.25-56.3,38.23-59.07,63.95-65.22,87.71-74.44,0,0-8.4,92.96,8.92,122.04,20.47,34.26,69.87,45.88,106.98,55.7,46.78,12.37,66.27,49.03,69.72,91.08s-3.07,60.35.22,76.47c3.3,16.12,5.77,83.81,6.45,101.8.67,17.92,5.25,33.43,10.72,47.38,5.47,13.94,22.86,36.21,30.14,116.35,7.27,80.14,2.62,120.77,10.35,143.86,7.72,23.16,21.07,23.91,30.96,41.46,9.82,17.54,17.39,44.08,24.14,53.6,12.59,17.69,20.77,25.04,9.82,26.91h-.15Z"/>
    </g>
    <g id="SideHead">
      <path id="LowerLip" class="cls-23" d="M610.72,240.62h0c-17.39,7.12-35.91,8.4-35.91,8.4,0,0-8.55-6.82-4.5-10.87,6.52-.82,7.27.45,16.87,1.8,10.35,1.5,23.54.6,23.54.6v.07Z"/>
      <path id="UpperLip" class="cls-23" d="M610.72,240.69c-.6.45-17.99,17.69-37.78,19.42-3.15-2.62,1.87-11.02,1.87-11.02,0,0,18.52-1.27,35.91-8.4h0Z"/>
      <path id="HeadBAse" class="cls-23" d="M737.79,223.67s-3.75,3.07-4.95,4.42c-3.75,4.27-6.07,9.45-10.42,10.94-4.35,1.5-5.92-.45-5.92-.45,0,0-3.07,11.92-7.65,20.47-3.3,6.22-16.42,13.27-22.49,15.97-45.05,20.47-76.39,23.46-92.28,19.79-21.82-5.1-12.97-25.79-14.09-27.81-1.27-2.32-3.22-3.9-6.9-6.9,19.79-1.72,37.18-18.89,37.78-19.42h0s-13.19.9-23.54-.6c-9.6-1.35-10.35-2.62-16.87-1.8,3.82-3.75,5.25-3.52,3.67-7.72-1.05-2.85-17.62-3.52-22.71-7.2s5.17-13.87,10.8-23.76c7.05-12.37,11.24-27.21,11.92-35.16,1.2-14.09-10.27-27.36,3.9-61.77,11.02-26.69,31.41-41.83,31.41-41.83,0,0,38.03-32.21,93.51-26.29,27.44,2.92,55.15,16.42,74.64,55.03,15.67,31.11,9.44,62.79-3.52,93.83-9.15,21.89-25.41,30.81-36.21,40.18h0l-.07.07Z"/>
    </g>
    <g id="FaceOrgans">
      <path id="_87878" data-name="87878" class="cls-33" d="M720.47,604.35c11.54-5.25,39.21-12.14,73.09-2.47,33.88,9.75,34.48,71.52,9.15,106.3-35.76,49.03-63.42,34.18-82.24,23.39-27.81-15.97-38.16-15.89-54.72-13.94-12.22,1.42-3.07,49.55,15.59,33.81,21.59-18.22,48.35-14.32,60.57,10.57,10.87,22.19-6.82,30.21-12.22,18.52-9.22-19.87-10.72-30.06-32.46-14.92-19.87,13.79-62.45.37-62.45-37.93s29.84-38.98,46.63-36.21c14.92,2.47,23.01,13.12,42.21,2.25,34.33-19.42-11.84-28.71-12.14-41.23-.22-12.52,1.87-19.49-5.1-23.16-6.97-3.67-4.27-16.64,14.17-25.04h0l-.07.07Z"/>
      <path id="_33333" data-name="33333" class="cls-34" d="M685.94,561.37c0,33.13-1.77,57.42,34.54,43.11,11.54-5.25-7.2,28.79-14.17,25.04-6.97-3.75-39.91,19.52-39.91-49.17,0-52.38,2.12-264.53,2.12-264.53h17.39s.03,216.23.03,245.56Z"/>
      <path id="_22222" data-name="22222" class="cls-35" d="M559.22,226.75v-.9c.45-4.95,4.35-27.36,21.74-38.76,20.39-13.34,42.66-9.75,59.37,1.65,16.72,11.39,43.03,24.01,44.06,58.19s1.52,68.87,1.52,68.87h-17.39c.05,0-.93-26.32-.93-47.23,0-17.21-8.68-27.65-18.49-38.16-13.57-9.37-34.18-14.02-49.63-13.57-21.96.67-33.96,11.24-33.96,11.24l-6.3-1.35h0Z"/>
      <g id="_11111" data-name="11111">
        <path class="cls-30" d="M565.07,213.63c1.8-4.2,5.02-11.02,9.15-10.65s1.65,6.6-1.05,9.37c-3.45,3.52-4.2,9.45-6.97,11.62-2.77,2.17-3.9-.9-3.45-3s1.2-4.8,2.32-7.42h0v.07Z"/>
        <path class="cls-27" d="M579.76,197.44c-1.35-3.15,7.12-12.97,23.46-13.94,16.34-.97,27.14,3.82,34.03,8.47,6.9,4.65,12.59,11.39,10.2,13.87s-6.97.9-11.54-2.77c-4.65-3.75-12.37-8.4-23.84-10.87-6.9-1.5-15.89.9-19.72,3-4.05,2.25-10.35,7.57-12.52,2.32h0l-.07-.07Z"/>
        <path class="cls-31" d="M580.59,212.05c-2.02-3.75,6.67-11.17,15.22-12.37,12.37-1.8,17.92-.6,26.99,2.1,9.07,2.7,16.72,7.5,16.27,11.77s-4.57,2.25-9.22-.97c-3.9-2.62-12.29-6-21.37-5.25-9.22.75-12.89,2.7-18.14,5.77-4.95,2.85-7.65,2.7-9.67-.97h0l-.07-.07Z"/>
      </g>
      <path id="_9999" data-name="9999" class="cls-10" d="M646.68,228.32c1.65.3,6.03,2.89,4.75,3.42,0,0,16.45,14.37,14.8,33.64,2.55,0-26.65,4.55-31.07,6.05l-10.5,1.05c-8.7.9-22.04.52-28.34-4.72-.75-.6-1.27-1.35-2.25-1.35l-1.12-.15c-1.87-3.3-5.02-9-8.92-12.89-2.25-2.55-5.02-4.05-8.55-3.15-.45.07-1.05,0-1.27-.37.3-.15.37-.37.52-.6-.22-.37-.3-.67-.15-1.05,2.85-.9,4.95-4.12,6.3-6.3.37-2.25,7.2-6.97,7.57-7.27,3.97-2.77,11.24-6.67,15.59-8.47,12.52-5.25,27.59-4.72,38.23,4.35v1.87l4.4-4.05Z"/>
      <path id="_8888" data-name="8888" class="cls-41" d="M643.71,219.78c1.35,2.85,3.22,4.65,5.4,6.6-3.52,2.4-6.82,5.92-6.82,5.92-.07-.97-.97-1.27-1.72-1.87-14.62-11.47-31.11-7.57-46.18,1.57l-6.6,3.45c-3.75,1.42-5.4,6.15-5.55,6.82-.6,2.85-2.62,4.87-5.4,5.77l-2.17,1.12c-.6-.52-9-6.37-4.8-10.27,6.67-6.15,6.97-9.75-4.42-11.47,4.5-3.45,10.27-6.3,15.89-7.95,13.34-3.97,23.84-13.34,36.21-6.9,9.22,4.8,26.01,7.12,26.01,7.12h0l.15.07Z"/>
      <path id="_5555" data-name="5555" class="cls-46" d="M582.99,235.29c-1.65,0-3.75-.07-5.25-1.05-2.25-1.42-2.32-4.2-.9-6.45,2.62-4.2,6.9-6.82,11.69-8.32,13.27-4.12,29.91-4.2,43.18.22.97.3,2.85,1.35,2.47,2.55-1.2,3.52-14.84-5.02-33.28,4.2l-17.92,8.77h0v.07Z"/>
    </g>
    <g id="ExternalOrgans">
      <g id="_999" data-name="999">
        <path class="cls-21" d="M782.25,767.47c0-.67-48.8,30.89-96.11,28.11-47.3-2.77-91.23-18.67-91.23-18.67,0,0,2.55,113.12-.82,124.74-3.37,11.62,3.6,38.38,9.15,22.49,20.62-58.25,26.01,33.73,81.56,36.28,71.07,3.3,6.82.37,38.98,4.05,32.16,3.67,64.02-22.71,69.12-43.11,5.1-20.39-19.42-60.27-12.07-85.24,7.35-24.96,1.5-68.67,1.5-68.67h-.07Z"/>
      </g>
      <g id="_888" data-name="888">
        <path class="cls-37" d="M707.35,978.35c1.57,8.85.97,17.99-4.8,24.29,2.1,8.4,2.32,16.94-.37,25.04l-4.42,13.57c-2.1,6.45-.15,12.97-1.5,14.39-2.55,2.7-6,3.6-9.07,3.07-1.65-.3-3.22-.82-4.57-1.95s-2.02-3.15-2.1-5.25c-.22-7.8-2.1-14.92-4.87-21.89l-6.22-15.67c-2.25-5.7-3-12.07-3.37-18.37-.52-7.57,1.05-14.24,3.97-20.77.37-2.17-.9-4.42-1.05-6.22l-.97-1.42c-1.2-35.68,27.36-32.69,29.84-31.86.52.15.9.75,1.2,1.27.15-.37.45-.9.67-.82.97.22,33.66,26.61,7.65,42.58h0Z"/>
      </g>
      <path id="_777" data-name="777" class="cls-37" d="M602.7,785.47c1.27,6,.97,13.19-1.12,18.82,3.6,5.02,3.52,12.29,1.87,18.29l1.05,3.15c.6,6.75-.22,13.42-2.4,19.94,1.65,6.75,1.35,13.57-1.12,20.47-.07,2.62,0,5.17.15,7.8,1.27.15,1.05,1.35-.22,1.42-1.42,4.27-1.05,7.87,1.12,10.8.52,1.2,1.35,3.3.15,3.9v3.6c.67.6.82,1.57.45,2.47,4.95,9.07,5.7,23.31.75,27.96-.9.82-1.05,2.02-.6,3,0,0-4.2,4.05-6.22,4.87l-9.15,3.52c-4.42.67-9.52-1.8-12.59-5.55-3.45-4.12-4.8-9.82-5.1-15.44-5.17-5.25-7.27-18.07-4.05-24.89.9-1.8.37-2.92,0-4.72-1.35-6.37.15-12.82,2.85-18.52-2.47-7.87-1.27-16.27,3.45-22.49-3.3-6.3-2.55-15.82,1.95-20.92-3.52-5.4-3.52-12.29-.52-18.14-2.77-4.35-3.67-9.6-2.55-14.92l1.12-5.1c-2.4-6.3-2.92-12.97-1.65-19.64,7.5-16.04,32.39,20.17,32.39,20.17h0v.15Z"/>
      <path id="_555" data-name="555" class="cls-37" d="M786.44,919.8c-.67-3.37-7.5-5.4-4.57-8.77-1.27-5.7-1.95-8.55-1.95-8.55-3.67,0-1.05-8.62-.07-12.59.3-1.27-5.7-10.05-4.57-12.44.6-1.35-.22-10.35-1.12-13.42-.45-1.65-.45-11.32,1.35-11.54,1.27-.22-1.95-10.27-1.2-12.82.37-1.35,1.95-9.75,1.35-10.94-.6-3.15-.9-6.22-1.12-9.37-1.35,0-1.35-2.85-.07-3.22.75-3,3.6-5.17,3.3-5.47-.3-.3-1.5-9.37-1.27-9.82.6-1.27,1.87-4.2,1.27-4.95-.9-1.12.6-5.4,1.57-6.3-.97-5.85-.9-11.84,0-18.07-3.37,5.55,5.62-12.14,11.54-11.92,2.7-5.62,19.04,4.42,16.27,8.62,1.95,3.3,2.7,6.97,1.5,10.72l-2.02,6.6c1.57,6.52.45,13.12-3.15,18.44,2.02,6.37,1.72,13.19-1.42,18.82,2.32,5.47,1.5,11.02-.75,16.04-.97,1.42-.9,2.77-.37,4.35,2.02,6.22,1.5,12.89-1.27,18.59,5.17,4.57,6.67,12.29,3.82,18.89,5.25,3.07,7.87,9,7.35,15.52,6.3,4.57,8.4,14.02,4.87,21.59,2.7,7.05-32.91,5.4-29.39,2.02h.15Z"/>
      <path id="_333" data-name="333" class="cls-45" d="M575.19,733.49c-.97-.82-18.67-41.16-9.52-78.41,9.15-37.26,13.34-40.18,47.23-43.03,33.88-2.85,57.12,9.37,78.71,6.75s57.2-.75,61.77.6c4.27,1.27.75,17.02-2.02,20.39-8.17,9.9-23.39,34.48-37.56,48.8-16.64,16.79-53.53,3.97-69.72,16.72-16.19,12.74-38.31,13.87-49.55,23.39-11.24,9.52-13.27,9.9-19.34,4.72h0v.07Z"/>
      <path id="_88" data-name="88" class="cls-26" d="M570.02,754.51c2.77-14.62,17.92-15.52,23.84-20.39,4.05-3.3,9.45-1.65,11.62,3.45,4.42,1.05,8.47,4.12,9.6,9.22,2.1,9.07-49.33,29.84-45.13,7.8h0l.07-.07Z"/>
      <path id="_77" data-name="77" class="cls-26" d="M782.02,732.47c.37-.15.82-.97,1.35-1.35,4.5-3.37,12.89-1.72,14.77,4.87,3.07-.45,5.77,1.05,7.72,3.45,2.02,2.32,2.77,6.15,2.25,9.6-.37,2.4.6,3,1.12,4.95,7.35,27.36-41.91-15.22-27.06-21.44h0l-.15-.07Z"/>
      <path id="_66" data-name="66" class="cls-1" d="M602.63,896.12c26.99-7.72,33.13,9.52,14.17,7.35-6.67-.75-8.85.9-9.15,1.35-3.82,5.25-14.54-1.2-5.02-8.7h0Z"/>
      <path id="_55" data-name="55" class="cls-47" d="M602.85,927.15l3.97,9c2.02,4.5,2.62,9.67,2.55,14.84,0,0,.97,11.69-.3,16.04-.6,2.25-3.37-2.4-3.52-4.72l-.75-13.57c-.3-5.1-1.35-9.22-3.97-13.27-1.05-1.57-2.1-2.92-4.27-3.52,0,0-1.8-10.35,6.22-4.87h0l.07.07Z"/>
      <g id="_44" data-name="44">
        <ellipse class="cls-21" cx="600.51" cy="902.98" rx="3.37" ry="2.7" transform="translate(-278.2 267.49) rotate(-20.5)"/>
      </g>
      <path id="_33" data-name="33" class="cls-44" d="M767.03,946.27c-9.67,6.52-24.21,7.5-32.16-2.47l-2.17-.82c-4.42.45-8.77,1.95-13.04,4.42l-1.5-.45c-1.27.6-3.07-.15-4.35-.9,0,0-16.42-4.35-17.09-3.97l.97-6.07c5.32-5.02,13.12-13.19,20.09-8.7,2.85,3.15,4.12,1.42,7.12,0,5.25-6.52,5.92-1.87,12.14,1.57,5.85,4.57,11.77,7.65,17.32,5.4h.22-.22c-2.32,0-4.95-1.05-6.22-2.77l-4.5-9.37c-1.42-3-3.52-4.57-6.6-5.25-5.1-1.05-9.52,1.35-11.92,6.52-1.35,2.92-4.12,3.75-6.6,2.4-8.32-4.57-11.84,2.7-18.59.3-3.6-1.27-5.55-5.25-5.62-9.97-2.02,3.82-5.1,4.65-9.07,4.27-6.6-.6-4.65-7.57-7.12-17.09-2.47-9.67,11.32-13.27,19.57-10.27,5.85,2.1,9.9,7.95,11.77,14.54.3.97.52,1.8,1.42,2.4,3.22-6.67,9.07-10.8,15.52-11.32,10.65-.9,26.76,7.8,34.71,16.04.75.82.9,2.4,1.87,2.47-.82-7.27-6.07-13.72-12.22-16.72-11.02-5.4-30.44-9.45-38.16,4.35-.9.75-1.35.97-2.02,0-2.92-12.82-13.57-15.97-23.54-12.82-.52,0-.82-.22-1.12-.6-6.45,5.32-14.09-.97-22.34-1.65l-17.92-1.57c-9.07-.82-17.47-3.82-25.94-7.12-.9-.3-1.8-.15-2.1.52-.37.9,0,1.95.9,2.4,19.64,9.52,33.21,5.62,48.2,9.37,4.5,1.12,8.47,4.2,9.82,9.6,1.12,4.57.15,10.27-2.47,13.79-4.57,6.07-17.62,6.67-25.64,4.35,2.77,5.1,4.87,10.57,6.15,16.42,1.57,5.32,3.45,10.35,5.62,15.22,3.15,3.15,3.07,1.05-.22-6.15-2.02-6.67-3.22-12.74.52-19.19,4.12-7.05,14.84-8.62,18.74-6.6,5.25,2.7,11.09,9.6,14.69,14.69l-.6,6.3c-5.02-.97-14.32-6.82-21.96,11.17-2.4,5.55-3.15,11.77-2.77,17.77-18.14,1.72-25.04-9.22-29.99-28.64-4.27-16.79-10.87-27.66-24.89-33.81-2.1-.9-4.12-2.1-6.3-1.42-1.12-3.22-3.22-6.07-5.77-8.17,0-1.2,0-2.17.15-2.92v-4.42c3-.9,6.75-.15,9.82.52,9.07,2.02,17.92,7.05,25.26,14.24l16.49,2.47c2.17.6,4.5,1.42,6.6.75.67-.22.6-2.02.15-2.47-.3-.37-.75-1.2-1.42-1.35-7.35-2.1-14.62-3.52-22.26-4.12-7.8-6.75-16.64-10.42-26.24-11.02-4.5-.3-8.32-3.9-8.55-9l-.15-4.12.22-1.42c.75-5.1,3.22-9.07,6.82-12.07,2.1,6.15,7.12,8.92,12.14,6.82,2.92-1.2,6-1.27,8.92.22,6.52,3.45,12.59,3,20.54,2.77,1.72,0,9.97-2.62,15.59-3.22,5.02-.52,12.07.22,16.42,1.57-7.57-6-20.54-4.2-29.91-1.27-7.12,2.25-14.17,1.72-20.92-1.72-3.67-1.87-7.12-2.25-11.02-.75-3.6,1.42-7.35.37-9.52-3.3-3.15-5.47-4.95-11.84-4.2-18.52l2.1-19.64c.52-5.1,0-9.52-2.1-13.94-3.75-8.32-5.55-17.99-.22-24.81,3,1.2,11.24,12.44,11.24,12.44-1.12,0,.97,27.29,8.47,45.5,2.02,4.8,6.9,6.9,11.32,8.32,6.52,2.02,12.59.15,17.77-4.8,8.4-7.95,15.52-2.92,23.01,4.95,6.07,7.72,21.44,24.29,21.96,23.09l.82-.52c4.87,1.05,9.75,1.65,14.77,1.8,21.14-2.55,47-4.95,61.02,18.22,9.07,16.72,5.02,39.51-9.9,49.55h0l.15-.22Z"/>
      <path id="_22" data-name="22" class="cls-44" d="M773.77,804.88c-1.12-4.65-6.75-19.64-10.27-21.07-.3-.15-.67-.15-.97-.22-3.82,3.82-10.12,5.55-14.62,1.65-1.8.6-1.95,2.7-2.85,3.82,5.02,5.85,9.15,12.59,11.39,20.69,1.57,5.4,2.47,12.07-.67,12.52-1.27.15-2.17-.97-2.62-2.47l-4.27-14.24c-1.8-4.12-4.5-7.8-8.4-9.07-6.22-2.1-12.89,1.05-16.49,7.27-1.87,3.15-1.2,6.45.52,9.37,3.52,6.07,6.15,12.67,6,20.24l-.22,10.94c-.07,5.1,3,8.55,7.2,9.52l14.02,3.15c.97.22,1.57,1.27,1.5,2.1-.15,2.47-2.85,2.32-6.15,1.12-8.25-3.07-18.44-4.35-26.61-.15l3.52-7.5c3-6.45,4.42-13.87,4.05-21.22-.45-9.52-4.2-17.39-10.57-22.86-5.92-5.1-13.04-7.5-20.24-5.32-8.32,2.47-13.79,11.69-12.44,21.74.3,2.32,1.8,4.65,3.07,8.4-2.77-6.6-8.32-8.1-6.52-15.07l1.5-5.77c.6-2.25.22-4.8-.97-6.52-1.2-1.65-3.07-2.4-4.87-3.15l-3-1.2c-.75-1.72-3.6-1.57-4.65-.15-5.7-.22-13.64-1.12-16.49-7.57-2.4,1.95-4.72,3.22-7.8,3.45-2.1,9.9,1.2,20.17.15,26.84-.15.9-1.42,2.32-2.1,1.35-1.42-2.02-1.35-5.1-1.27-7.72.22-7.27,0-14.24-1.35-21.22-1.65-1.2-2.92-2.47-4.2-4.5-6.22,5.32-14.47,2.77-19.49-3.82-3.22,1.2-6.3.15-9.3-1.05-5.4,6.82.9,23.16,11.69,12.14,2.32-2.32,7.8,9.82,7.42,21.29l-.37,12.67c-.22,6.82,2.55,12.29,7.72,15.07,6.52,3.45,14.32,3.15,20.02-2.4,6.15-6.07,6.45-19.94,6.9-29.99,0-1.2.3-3.6,1.65-3.52,2.77.15.9,16.34-.22,23.24-.52,3.15.9,5.92,3.52,6.52,3.82.82,7.12,2.7,10.2,5.47l9,8.02c0,.45.15.97.3,1.5.52,1.65,1.95,3.52,3.9,4.42,3.45,1.57,7.12.3,10.05-2.47,7.27-7.12,8.17-18.82,5.32-29.46-.3-1.27-.75-3.6.22-4.42,3.15-2.62,5.25,9.75,4.12,19.12-.82,6.97-3.9,12.74-8.25,17.17.22,1.35-4.5,3-6.22,4.87-.15.15,1.12,3.15,1.12,3.45,2.4,2.4,5.4,3.82,8.7,4.72,14.02,3.9,26.24-2.17,35.98-.82l21.52,3.07c3.82.52,6.67-1.27,8.92-5.25,3.82-6.75,3.6-16.57-1.27-22.71-5.47-6.97-16.04-1.72-22.71-12.07-3.82-5.92-7.5-12.59-8.4-20.32,2.55,3.67,3.37,8.1,5.25,11.92,1.72,3.45,3.45,6.6,6,9.22,6.07,6.22,17.32,6.37,21.44.15,2.25-3.3,3.67-7.65,3.67-11.92v-6.45l-.15-3.22c.22-.3.37-.6.52-.97.75-1.8-.6-7.95-1.12-10.27h0l.07-.08ZM688.91,838.24c.15,1.05.22,2.02.22,2.92,0-1.05-.15-2.1-.22-2.92-.37-2.02-.82-3.67-1.27-5.17.6,1.42,1.05,3.15,1.27,5.17Z"/>
      <path class="cls-19" d="M199.76,190.26h55.02c12.54,0,22.71,10.17,22.71,22.71v35.12"/>
      <path class="cls-19" d="M199.76,306.99h55.02c12.54,0,22.71-10.17,22.71-22.71v-35.12"/>
      <path id="flow-dhatu" class="cls-19" d="M205.76,247.83h449.8c11.16,0,20.3,8.86,20.65,20.01l1.45,329.67c.05,11.28,9.24,20.37,20.52,20.29,23.8-.17,62-.3,78.8.47,7.76.35,13.49,7.48,13.37,15.25l-.62,56.97c-.14,8.64-7.17,15.57-15.81,15.6l-108.77.32c-9.14.03-16.52,7.48-16.45,16.63l.1,13.42c.07,9.06,7.44,16.38,16.5,16.38h36.08l-1.33,64.74-66.22-1.06c-8.8-.14-16.07,6.84-16.28,15.65l-.2,8.65c-.21,8.87,6.82,16.22,15.69,16.4l106.61,2.22c8.73.18,15.7,7.32,15.69,16.04v10.32c-.03,8.9-7.29,16.09-16.19,16.01l-137.78-1.24c-7.85-.07-14.18-6.46-14.18-14.31v-95.3"/>
      <path id="flow-dhatu-2" data-name="flow-dhatu" class="cls-12" d="M209.76,247.83h445.8c11.16,0,20.3,8.86,20.17,21.06l1.91,328.76c.07,11.23,9.19,20.29,20.42,20.26,23.69-.06,61.78-.07,78.93.35,8.3.2,13.5,6.95,13.37,15.25l-.62,56.97c-.14,8.64-7.17,15.57-15.81,15.6l-108.77.32c-9.14.03-16.52,7.48-16.45,16.63l.1,13.42c.07,9.06,7.44,16.38,16.5,16.38h36.08l-.66,64.94-66.89-1.27c-8.8-.14-16.07,6.84-16.28,15.65l-.2,8.65c-.21,8.87,6.82,16.22,15.69,16.4l106.61,2.22c8.73.18,15.7,7.32,15.69,16.04v10.32c-.03,8.9-7.29,16.09-16.19,16.01l-137.78-1.24c-7.85-.07-14.18-6.46-14.18-14.31v-93.3"/>
      <path id="_666" data-name="666" class="cls-37" d="M741.46,988.92c-12.74-.15-16.49-3.67-19.64-7.35l-1.65-2.4c-3.97,3.37-8.7,2.7-12.82-.75,1.57,8.85-8.1-41.68-7.2-41.08l8.25,3.37c2.62.37,4.65,1.57,6.97,3,1.27.3,2.32.75,3.22,1.5h1.5l4.95,4.27c5.62,0,11.24,1.65,15.97,5.17,4.8-1.12,9.6-.6,14.39,1.42,4.27-2.47,8.17-5.7,11.69-9.67l3.45-2.4c2.4-4.12,5.1-7.87,8.32-11.09,1.65-4.95,4.12-9.75,7.65-13.12-.67-3.37,32.83-9.6,29.39-2.02,2.7,7.05,1.5,15.22-3.3,20.69-.75,8.02-3.97,15.59-9.15,20.62-3.07,8.02-7.27,14.39-14.99,14.99-4.27,8.25-11.69,14.47-19.87,12.22-5.55,7.12-16.49,8.92-21.59,1.35-2.02.97-3.75,1.27-5.47,1.27h-.07Z"/>
      <path id="_444" data-name="444" class="cls-49" d="M706.94,801.61c-3.82,5.15-2.88,3.03-8.05,2.78-2.62,1.1-2.91,1.22-5.08-.81,0-6.55.96-35.54.81-41.15,2.69-2.07,2.91-2.01,7.79-4.37l.67-1.01c2.55,0,1.34.98,4.72.9.6,0-.56,34.04-.86,43.68Z"/>
      <path id="_444-2" data-name="444" class="cls-37" d="M779.47,771.52c-3.37,5.55-8.77,7.8-14.24,8.32-.75.97-1.2,2.1-1.5,3.52l-1.05.15c.22.82.07,1.12-.3,1.65-2.85,3.52-11.09,4.42-14.39,1.2-.67.67-1.27,1.57-1.65,2.7h-1.12c.15.37.22.9,0,1.35-1.65,3.97-12.22,4.72-15.44,2.85-5.02,5.02-12.14,7.57-17.92,2.92-3.82,4.57-8.1,5.62-13.27,5.4-2.62.97-4.42.22-6.6-1.57-2.32,2.55-5.4,3.9-8.47,4.27-.52,1.35-1.12,1.8-1.87,1.27l-.97.3c-2.02-1.57-4.2-2.7-6.6-3.37l-.22-1.2c-1.8-1.65-2.55-1.5-4.65-.15l-.75,1.05c-5.62-.3-12.22-1.12-15.89-6.9-7.57,5.1-13.04,3.9-16.64-2.1-6.37,4.65-14.99,2.17-19.49-4.42-.37.6-1.27.6-1.95.6-2.1,0-6.45-.15-7.12-2.55l-.9.75-3.82-2.25c1.27,6-33.66-13.57-32.39-20.17-1.95-7.27-.22-14.62,4.42-19.57,6.3-6.6,13.19-6.75,19.12-11.69,4.05-3.3,9.45-1.65,11.62,3.45,4.42,1.05,7.8,4.35,9.6,9.22,4.5.67,8.47,3.15,10.27,8.02,5.7-2.02,12.22-1.12,15.29,4.72,5.7-3.75,12.22-1.8,16.27,4.5,5.47-4.57,12.37-4.27,17.32,1.42,6-4.35,13.19-3.52,18.89,1.05,2.92,2.4,4.5-2.4,9.37-4.5l.67-.9c2.55,0,5.02.67,7.27,1.8,2.4-2.7,7.12-6.22,10.5-6.3.6,0,1.27.37,1.8.75,1.57,1.12,3.3.97,4.95-.45,3.52-1.42,6.97-3.22,10.8-2.47,1.35.3,2.25.15,3.07-1.12,2.85-4.57,7.27-7.65,12.14-7.57,1.5-6.82,7.42-8.92,13.34-8.7,2.7-5.62,8.47-8.1,13.49-5.47.52.3.97,1.12,1.57.9.37-.15.82-.97,1.35-1.35,4.5-3.37,12.89-1.72,14.77,4.87,3.07-.45,5.77,1.05,7.72,3.45,2.02,2.32,2.77,6.15,2.25,9.6-.37,2.4.3,3.07,1.12,4.95,6,13.64-14.32,33.13-29.61,17.62h0l-.15.15Z"/>
      <path id="flow-dhatu-3" data-name="flow-dhatu" class="cls-19" d="M587.21,791.06v-3.54c0-6.96,5.63-12.6,12.59-12.62l178.14-.49c6.99-.02,12.66,5.64,12.66,12.62v130.6"/>
      <path id="flow-dhatu-4" data-name="flow-dhatu" class="cls-12" d="M587.21,791.42v-2.7c0-7.62,6.17-13.8,13.79-13.82l175.74-.48c7.65-.02,13.86,6.17,13.86,13.82v129.4"/>
      <path id="_99" data-name="99" class="cls-42" d="M753.23,619.54c3.52.97,2.17,14.02-1.05,19.79s-23.09,39.66-47.45,38.83c-24.36-.82-60.42-9.22-80.81,7.5-20.39,16.72-34.18,47.23-38.46,49.85-4.27,2.62-7.57.67-10.5-2.02-2.92-2.7-12.74-30.89-11.84-64.25.52-19.42,9.37-43.26,15.07-49.03,3.6-3.6,22.86-13.42,60.2-7.72,30.81,4.72,47.6,7.27,67.47,5.25,19.87-2.02,39.88-.37,47.38,1.72h0v.07Z"/>
      <path id="_11" data-name="11" class="cls-22" d="M599.93,907.51s2.1,4.05,2.62,7.12-.52,6.3-1.65,7.57.9,3.3,2.47,1.57,3.45-3,3.37-9.37-.75-6.67-.82-7.65-.9,1.5-2.55.52-2.7-.97-3.45.22h0Z"/>
      <path id="Heart" class="cls-40" d="M776.73,511.05c6.03,7.93,12.17,31.67,7.16,42.12-5.01,10.45-4.09,10.64-6.26,17.95-2.16,7.31-16.38,38.45-28.3,40.13-11.92,1.67-27.08-20.08-32.99-21.1s-25.2-20.37-23.83-32.24c1.38-11.87.75-12.57-2.04-21.37-2.79-8.8.14-22.17,6.33-34.68,6.2-12.51,5.17-14.28,1.65-20.09-5.07-8.35-20.77-15.31-20.77-15.31,0,0-4.26-16.63,4.4-14.43,10,2.53,27.27,6.4,28.15,14.43.93,8.54,7.17,8.62,7.79,9.32s11.28-8.28,20.71-6.22c9.42,2.06,12.32,7.11,12.32,7.11,0,0-1.87-13.36.27-15.89,2.14-2.53,8.47-4.01,9.04-.25.57,3.75-2.58,18.7.02,19.52s4.64-.16,5.72-2.62,3.95-18.61,6.7-18.04,13.27,2.81,12.52,6.48-6.88,17.37-5.6,18.11,1.05,2.36,2.35.71,5.89-9.61,7.62-9.63,5.03,2.56,4.91,4.54-4.88,6.08-5.59,9.09-2.38,3.42,1.43,6.31,10.28,3.54,8.34,9.26c-1.94,5.73-4.4,13.55-8.8,11.69-4.4-1.86-13.25-4.91-13.25-4.91Z"/>
      <path id="flow-dhatu-5" data-name="flow-dhatu" class="cls-12" d="M199.76,190.26h55.02c12.54,0,22.71,10.17,22.71,22.71v35.12"/>
      <path id="flow-dhatu-6" data-name="flow-dhatu" class="cls-12" d="M199.76,306.99h55.02c12.54,0,22.71-10.17,22.71-22.71v-35.12"/>
    </g>
    <line class="cls-18" x1="797.06" y1="824.88" x2="784.09" y2="824.88"/>
  </g>
  <g id="flow-dhatu-7" data-name="flow-dhatu">
    <line class="cls-19" x1="706.37" y1="817.61" x2="900.88" y2="817.61"/>
    <polyline class="cls-12" points="706.37 817.61 784.62 817.61 900.88 817.61"/>
    <line class="cls-19" x1="706.37" y1="752.83" x2="896.46" y2="752.83"/>
    <line class="cls-12" x1="706.37" y1="752.83" x2="896.46" y2="752.83"/>
    <line class="cls-19" x1="789.49" y1="638.25" x2="895.81" y2="638.25"/>
    <line class="cls-12" x1="789.49" y1="638.25" x2="900.59" y2="638.25"/>
    <line class="cls-19" x1="789.49" y1="697.04" x2="895.81" y2="697.04"/>
    <line class="cls-12" x1="789.49" y1="697.04" x2="900.59" y2="697.04"/>
    <line class="cls-19" x1="794.49" y1="872.4" x2="895.81" y2="872.4"/>
    <line class="cls-12" x1="799.49" y1="872.4" x2="900.59" y2="872.4"/>
    <path class="cls-19" d="M870.81,927.19h-71.09c-5.1,0-9.23-4.13-9.23-9.23v-1"/>
    <path class="cls-12" d="M790.59,906.72l-.18,7.56c-.17,7.08,5.52,12.91,12.6,12.91h57.58"/>
  </g>
  <g id="flow-dhatu-8" data-name="flow-dhatu">
    <path id="Start" class="cls-19" d="M868.8,927.19h10.55c11.73,0,21.23-9.51,21.23-21.23v-332.57c0-11.27-10.78-23.42-25.89-23.42-26.01,0-81.8.36-95.05.36-23.19,0-22.9-24.51-22.9-32.97,0-14.58,9.21-26.51,24.67-26.51h200"/>
    <path id="Start-2" data-name="Start" class="cls-12" d="M868.8,927.19h10.55c11.73,0,21.23-9.51,21.23-21.23v-332.57c0-11.27-10.78-23.42-25.89-23.42-26.01,0-81.8.36-95.05.36-23.19,0-22.9-24.51-22.9-32.97,0-14.58,9.21-26.51,24.67-26.51h200"/>
    <path id="Middle" class="cls-16" d="M981.43,490.84h127.33c28.05,0,32.65,15.21,32.65,25.82,0,35.21-2,525.74-2,576.12"/>
    <path id="Middle-2" data-name="Middle" class="cls-20" d="M981.43,490.84h127.33c28.05,0,32.65,15.21,32.65,25.82,0,35.21-2,525.74-2,576.12"/>
    <path class="cls-14" d="M683.68,491.88s-12.77-.01-12.96-.01"/>
    <line class="cls-14" x1="671.05" y1="554.14" x2="684.19" y2="554.4"/>
    <path id="End" class="cls-13" d="M1139.41,1091.77c0,13.02-3.92,27.53-28.22,28.22-47.63,1.34-661.16-2-702.94-2-44.1,0-57.94,1.55-57.94-34.07,0-42.2,1.56-482.32,1.56-510.82,0-9.21,5.9-24.7,26.44-24.7,47.76,0,296.71,2,315.96,2,14.2,0,27.98-4.45,27.98-31.41,0-20.33-8.31-31.12-30.87-31.12-30.55,0-497.08-1-539.09-1-13.25,0-23.2,11.53-23.2,24.57,0,34.86,1.05,631.6,1.05,631.6"/>
    <path id="End-2" data-name="End" class="cls-20" d="M1139.41,1091.77c0,13.02-3.92,27.53-28.22,28.22-47.63,1.34-661.16-2-702.94-2-44.1,0-57.94,1.55-57.94-34.07,0-42.2,1.56-482.32,1.56-510.82,0-9.21,5.9-24.7,26.44-24.7,47.76,0,296.71,2,315.96,2,14.2,0,27.98-4.45,27.98-31.41,0-20.33-8.31-31.12-30.87-31.12-30.55,0-497.08-1-539.09-1-13.25,0-23.2,11.53-23.2,24.57,0,34.86,1.05,631.6,1.05,631.6"/>
  </g>
  <g id="Rasa">
    <circle id="RasaBack" class="cls-6" cx="1141.65" cy="673.17" r="75"/>
    <path id="RasaBack-2" data-name="RasaBack" class="cls-50" d="M1209.15,673.17c0,37.28-30.22,67.5-67.5,67.5s-67.5-30.22-67.5-67.5c0-.23,135.01-.21,135.01,0Z"/>
    <rect class="cls-36" x="1083.51" y="648.05" width="115.81" height="49.91" rx="24.27" ry="24.27"/>
    <text class="cls-7" transform="translate(1103.3984 680.1839)"><tspan x="0" y="0">RAS</tspan><tspan class="cls-11" x="57.01" y="0">A</tspan></text>
  </g>
  <g id="Rakta">
    <circle id="RasaBack-3" data-name="RasaBack" class="cls-6" cx="1141.65" cy="935.58" r="75"/>
    <path id="RasaBack-4" data-name="RasaBack" class="cls-50" d="M1209.15,935.58c0,37.28-30.22,67.5-67.5,67.5s-67.5-30.22-67.5-67.5c0-.23,135.01-.21,135.01,0Z"/>
    <rect class="cls-36" x="1083.74" y="910.63" width="115.81" height="49.91" rx="24.27" ry="24.27"/>
    <text class="cls-7" transform="translate(1095.4092 943.2165)"><tspan x="0" y="0">RAK</tspan><tspan class="cls-39" x="58.5" y="0">T</tspan><tspan class="cls-43" x="72.98" y="0">A</tspan></text>
  </g>
  <g id="Mamsa">
    <circle id="RasaBack-5" data-name="RasaBack" class="cls-6" cx="1017.2" cy="1120.73" r="75"/>
    <path id="RasaBack-6" data-name="RasaBack" class="cls-50" d="M1084.7,1120.73c0,37.28-30.22,67.5-67.5,67.5s-67.5-30.22-67.5-67.5c0-.23,135.01-.21,135.01,0Z"/>
    <rect class="cls-36" x="953.83" y="1093.99" width="126.73" height="54.62" rx="24.27" ry="24.27"/>
    <text class="cls-8" transform="translate(964.3414 1128.0415)"><tspan x="0" y="0">MAMS</tspan><tspan class="cls-24" x="85.6" y="0">A</tspan></text>
  </g>
  <g id="Meda">
    <circle id="RasaBack-7" data-name="RasaBack" class="cls-6" cx="745.05" cy="1120.73" r="75"/>
    <path id="RasaBack-8" data-name="RasaBack" class="cls-50" d="M812.56,1120.73c0,37.28-30.22,67.5-67.5,67.5s-67.5-30.22-67.5-67.5c0-.23,135.01-.21,135.01,0Z"/>
    <rect class="cls-36" x="687.15" y="1095.77" width="115.81" height="49.91" rx="24.27" ry="24.27"/>
    <text class="cls-8" transform="translate(703.8073 1129.0612)"><tspan x="0" y="0">MED</tspan><tspan class="cls-25" x="62.26" y="0">A</tspan></text>
  </g>
  <g id="Asthi">
    <circle id="RasaBack-9" data-name="RasaBack" class="cls-6" cx="472.91" cy="1120.73" r="75"/>
    <path id="RasaBack-10" data-name="RasaBack" class="cls-50" d="M540.41,1120.73c0,37.28-30.22,67.5-67.5,67.5s-67.5-30.22-67.5-67.5c0-.23,135.01-.21,135.01,0Z"/>
    <rect class="cls-36" x="415" y="1095.61" width="115.81" height="49.91" rx="24.27" ry="24.27"/>
    <text class="cls-8" transform="translate(429.5275 1129.0612)"><tspan x="0" y="0">ASTHI</tspan></text>
  </g>
  <g id="Majja">
    <circle id="RasaBack-11" data-name="RasaBack" class="cls-6" cx="351.18" cy="935.58" r="75"/>
    <path id="RasaBack-12" data-name="RasaBack" class="cls-50" d="M418.68,935.58c0,37.28-30.22,67.5-67.5,67.5s-67.5-30.22-67.5-67.5c0-.23,135.01-.21,135.01,0Z"/>
    <rect class="cls-36" x="294.71" y="910.68" width="115.81" height="49.91" rx="24.27" ry="24.27"/>
    <text class="cls-8" transform="translate(303.7 944.42)"><tspan x="0" y="0">MAJJ</tspan><tspan class="cls-24" x="74.74" y="0">A</tspan></text>
  </g>
  <g id="Shukra-Artava">
    <circle id="RasaBack-13" data-name="RasaBack" class="cls-6" cx="351.18" cy="674.15" r="75"/>
    <path id="RasaBack-14" data-name="RasaBack" class="cls-50" d="M418.68,674.15c0,37.28-30.22,67.5-67.5,67.5s-67.5-30.22-67.5-67.5c0-.23,135.01-.21,135.01,0Z"/>
    <rect class="cls-36" x="283.68" y="640" width="134.89" height="66.03" rx="30.92" ry="30.92"/>
    <text class="cls-7" transform="translate(288.68 672.83)"><tspan x="0" y="0">SHUKRA/</tspan><tspan x="8.26" y="22.07">AR</tspan><tspan class="cls-29" x="47.26" y="22.07">TAV</tspan><tspan class="cls-48" x="95.24" y="22.07">A</tspan></text>
  </g>
  <rect class="cls-6" x="43.99" y="165.56" width="181.33" height="49.99" rx="24.7" ry="24.7"/>
  <text class="cls-5" transform="translate(85.41 201.2)"><tspan x="0" y="0">PRAN</tspan><tspan class="cls-38" x="90.2" y="0">A</tspan></text>
  <rect class="cls-6" x="43.99" y="223.09" width="181.33" height="49.99" rx="24.7" ry="24.7"/>
  <text class="cls-5" transform="translate(78.73 258.73)"><tspan x="0" y="0">UDAK</tspan><tspan class="cls-38" x="90.2" y="0">A</tspan></text>
  <rect id="Legend" class="cls-6" x="43.99" y="280.63" width="181.33" height="49.99" rx="24.7" ry="24.7"/>
  <text class="cls-5" transform="translate(89.56 315.81)"><tspan x="0" y="0">ANN</tspan><tspan class="cls-38" x="68.55" y="0">A</tspan></text>
  <rect class="cls-6" x="43.99" y="527.6" width="171.39" height="49.99" rx="24.7" ry="24.7"/>
  <text class="cls-3" transform="translate(83.79 562.01)"><tspan x="0" y="0">RAJAH</tspan></text>
  <rect class="cls-6" x="43.99" y="640.63" width="171.39" height="49.99" rx="24.7" ry="24.7"/>
  <text class="cls-3" transform="translate(75.16 675.32)"><tspan x="0" y="0">S</tspan><tspan class="cls-29" x="18.68" y="0">T</tspan><tspan x="33.7" y="0">AN</tspan><tspan class="cls-29" x="72.6" y="0">Y</tspan><tspan class="cls-28" x="89.2" y="0">A</tspan></text>
  <rect class="cls-6" x="43.99" y="753.67" width="171.39" height="49.99" rx="24.7" ry="24.7"/>
  <text class="cls-4" transform="translate(60.2 789.3)"><tspan x="0" y="0">PURISH</tspan><tspan class="cls-28" x="117.13" y="0">A</tspan></text>
  <rect class="cls-6" x="43.99" y="866.7" width="171.39" height="49.99" rx="24.7" ry="24.7"/>
  <text class="cls-3" transform="translate(79.91 900.79)"><tspan x="0" y="0">MUTR</tspan><tspan class="cls-28" x="80.87" y="0">A</tspan></text>
  <rect class="cls-6" x="43.4" y="979.74" width="171.39" height="49.99" rx="24.7" ry="24.7"/>
  <text class="cls-3" transform="translate(81.6354 1014.4457)"><tspan x="0" y="0">SVED</tspan><tspan class="cls-28" x="76.25" y="0">A</tspan></text>
  <rect class="cls-6" x="43.4" y="1092.77" width="171.39" height="49.99" rx="24.7" ry="24.7"/>
  <text class="cls-3" transform="translate(87.0977 1127.2091)"><tspan x="0" y="0">MANO</tspan></text>
  <g id="LEgends">
    <text class="cls-2" transform="translate(1081.2773 235.3254)"><tspan x="0" y="0">Abhyantara</tspan></text>
    <line class="cls-17" x1="1085.21" y1="362.66" x2="1199.23" y2="362.66"/>
    <line class="cls-15" x1="1085.21" y1="303.5" x2="1199.23" y2="303.5"/>
    <line class="cls-19" x1="1085.21" y1="251.08" x2="1199.23" y2="251.08"/>
    <text class="cls-2" transform="translate(1108.6288 287.7492)"><tspan x="0" y="0">Bāhya</tspan></text>
    <line id="flow-dhatu-9" data-name="flow-dhatu" class="cls-12" x1="1085.21" y1="251.08" x2="1199.23" y2="251.08"/>
    <line id="flow-dhatu-10" data-name="flow-dhatu" class="cls-20" x1="1085.21" y1="303.5" x2="1199.23" y2="303.5"/>
    <text class="cls-2" transform="translate(1082.2929 346.9082)"><tspan x="0" y="0">Madhyama</tspan></text>
    <line id="flow-dhatu-11" data-name="flow-dhatu" class="cls-20" x1="1085.21" y1="362.66" x2="1199.23" y2="362.66"/>
    <path id="RasaBack-15" data-name="RasaBack" class="cls-50" d="M1209.15,107.86c0,37.28-30.22,67.5-67.5,67.5s-67.5-30.22-67.5-67.5c0-.23,135.01-.21,135.01,0Z"/>
    <path id="RasaBack-16" data-name="RasaBack" class="cls-6" d="M1209.15,103.94c0-37.28-30.22-67.5-67.5-67.5s-67.5,30.22-67.5,67.5c0,.23,135.01.21,135.01,0Z"/>
    <text class="cls-9" transform="translate(1090.2987 86.9261)"><tspan x="0" y="0">Srotamsi</tspan></text>
    <text class="cls-9" transform="translate(1107.6545 141.5313)"><tspan x="0" y="0">Dhātu</tspan></text>
  </g>
</svg>