<?xml version="1.0" encoding="UTF-8"?>
<svg xmlns="http://www.w3.org/2000/svg" xmlns:xlink="http://www.w3.org/1999/xlink" viewBox="0 0 219.98 290.21">
  <defs>
    <style>
      .cls-1 {
        fill: #fff;
      }

      .cls-2 {
        fill: #fab458;
      }

      .cls-3 {
        fill: #b75f51;
      }

      .cls-4 {
        fill: #c67067;
      }

      .cls-5 {
        fill: #a5554c;
      }

      .cls-6 {
        fill: #5e7726;
      }

      .cls-7 {
        fill: url(#linear-gradient);
      }
    </style>
    <linearGradient id="linear-gradient" x1="110.33" y1="7.4" x2="110.33" y2="286.05" gradientUnits="userSpaceOnUse">
      <stop offset="0" stop-color="#942900"/>
      <stop offset="1" stop-color="#7d2400"/>
    </linearGradient>
  </defs>
  <g id="Layer_2" data-name="Layer 2">
    <path class="cls-7" d="M110.33,12.7c29.95,0,53.3-13.54,70.88,2.67s37.5,61.88,33.24,119.58c-4.4,59.62-28.85,151.1-104.12,151.1S10.61,194.57,6.21,134.95C1.96,77.25,21.87,31.58,39.45,15.37s40.93-2.67,70.88-2.67Z"/>
  </g>
  <g id="Layer_6" data-name="Layer 6">
    <path class="cls-5" d="M8.38,128.52c5.59-32.11,24.23-16.33,37.29-30.72,4.5-4.96,6.03-11.35,12.58-15.59,10.93-7.07,27.1-10.33,51.14-11.13,18.95-.63,38.71,4.6,49.6,10.41s9.18,16.81,19.76,20c23.28,7.03,33.98,6.98,33.98,31.11,0,15.24-2.19,27.7-22.44,23.17-14.11-3.16-20.49,3.6-30.22-2-12.19-7.02-14.31-34.64-48.35-34.64-38.47,0-39.87,35.01-55.33,36.14-8.37.61-15.65-2.79-33.15.65-15.48,3.05-16.17-19.84-14.85-27.4Z"/>
  </g>
  <g id="Layer_3" data-name="Layer 3">
    <path class="cls-3" d="M112.09,278.31c-24.52,0-38.19-12.3-41.96-18.33-14.36-22.97,26.26-8.83,41.74-8.83,17.01,0,56.54-12.59,41.3,9.5-6.52,9.45-24.74,17.67-41.08,17.67Z"/>
    <path class="cls-4" d="M64.22,193.82c9.54,23.93,15.39,29.37,12.08,40.2s-8.83,7.74-14.36,12.26-24.52-3.43-34.01-25.73-13.5-37.82-2.87-52.34c22.31-30.48,32.39,8.61,39.16,25.62Z"/>
    <path class="cls-4" d="M155.66,193.82c-9.54,23.93-15.39,29.37-12.08,40.2,3.31,10.82,8.83,7.74,14.36,12.26,5.52,4.52,24.52-3.43,34.01-25.73,9.5-22.31,13.5-37.82,2.87-52.34-22.31-30.48-32.39,8.61-39.16,25.62Z"/>
    <g id="Layer_8" data-name="Layer 8">
      <path class="cls-3" d="M110.14,122.15c-14.58,0-16.12.74-22.45,6.63s-12.66,23.56-16.34,31.8c-3.68,8.25-6.63,17.97-5.89,23.19s2.8,17.15,9.28,29.67,7.21,16.05,9.28,22.67,8.82,11.94,25.98,11.94h-.11c17.17,0,24.25-5.31,26.32-11.94s2.8-10.16,9.28-22.67,8.54-24.44,9.28-29.67-2.21-14.95-5.89-23.19-10.01-25.91-16.34-31.8-7.8-6.63-22.38-6.63h0Z"/>
    </g>
    <path class="cls-4" d="M155.91,76.5c8.4,4.11,14.58,10.12,18.84,17.36,3.87,6.57,15.58,9.84,22.82,6.71s8.82-23.39,3.04-35.27c-5.79-11.87-19.96-26.95-29.15-23.63s-4.34,8.1-14.49,15.58c-13.2,9.71-12.69,13.57-1.06,19.26Z"/>
    <path class="cls-4" d="M63.06,76.43c-8.39,4.13-14.55,10.16-18.8,17.4-3.86,6.58-15.55,9.87-22.81,6.76s-8.88-23.37-3.12-35.26,19.9-26.99,29.1-23.7c9.2,3.29,5.73,8.87,14.53,15.54,15.66,11.87,12.72,13.54,1.1,19.26Z"/>
    <path class="cls-6" d="M162.16,46.01c6.07-25.28-24.5-32.34-52.41-32.34s-61.08,13.23-51.77,33.82c5.66,12.52,23.86,19.87,51.77,19.87s49.53-9.35,52.41-21.34Z"/>
  </g>
  <g id="Layer_5" data-name="Layer 5">
    <g>
      <path class="cls-1" d="M32.3,196.58h.74v6.36h3.92v.64h-4.66v-7Z"/>
      <path class="cls-1" d="M42.7,198.32v5.26h-.68v-.96c-.37.64-1.05,1.01-1.89,1.01-1.34,0-2.22-.75-2.22-2.26v-3.05h.71v2.98c0,1.12.58,1.69,1.58,1.69,1.1,0,1.79-.71,1.79-1.91v-2.76h.71Z"/>
      <path class="cls-1" d="M49.53,200.53v3.05h-.71v-2.98c0-1.11-.58-1.68-1.58-1.68-1.13,0-1.84.7-1.84,1.9v2.76h-.71v-5.26h.68v.97c.38-.64,1.09-1.01,2-1.01,1.28,0,2.16.74,2.16,2.25Z"/>
      <path class="cls-1" d="M56.35,198.32v4.62c0,1.81-.89,2.63-2.63,2.63-.96,0-1.9-.29-2.45-.81l.36-.54c.5.45,1.26.72,2.07.72,1.33,0,1.94-.61,1.94-1.91v-.67c-.44.67-1.19,1.02-2.05,1.02-1.5,0-2.64-1.05-2.64-2.56s1.14-2.54,2.64-2.54c.88,0,1.64.36,2.08,1.05v-1.01h.68ZM55.66,200.82c0-1.14-.84-1.92-2-1.92s-1.99.78-1.99,1.92.83,1.93,1.99,1.93,2-.79,2-1.93Z"/>
    </g>
    <g>
      <path class="cls-1" d="M95.04,254.7h-2.53v-.64h5.81v.64h-2.53v6.36h-.76v-6.36Z"/>
      <path class="cls-1" d="M104.35,258.01v3.05h-.73v-2.98c0-1.11-.6-1.68-1.62-1.68-1.16,0-1.89.7-1.89,1.9v2.76h-.73v-7.42h.73v3.08c.4-.61,1.11-.96,2.02-.96,1.31,0,2.22.74,2.22,2.25Z"/>
      <path class="cls-1" d="M110.77,255.8l-2.7,5.89c-.45,1.03-1.03,1.36-1.8,1.36-.5,0-.99-.16-1.31-.48l.34-.53c.27.26.6.4.99.4.48,0,.81-.22,1.12-.88l.24-.51-2.41-5.25h.76l2.03,4.47,2.03-4.47h.72Z"/>
      <path class="cls-1" d="M114.52,255.76v.69c-.06,0-.12,0-.17,0-1.13,0-1.82.7-1.82,1.94v2.68h-.73v-5.26h.7v1.03c.34-.7,1.03-1.07,2.02-1.07Z"/>
      <path class="cls-1" d="M115.24,258.42c0-1.56,1.17-2.67,2.75-2.67s2.74,1.11,2.74,2.67-1.16,2.68-2.74,2.68-2.75-1.12-2.75-2.68ZM119.99,258.42c0-1.23-.85-2.05-2-2.05s-2.01.82-2.01,2.05.86,2.05,2.01,2.05,2-.82,2-2.05Z"/>
      <path class="cls-1" d="M122.05,254.14c0-.27.24-.5.53-.5s.53.22.53.49c0,.29-.23.52-.53.52s-.53-.23-.53-.51ZM122.22,255.8h.73v5.26h-.73v-5.26Z"/>
      <path class="cls-1" d="M129.91,253.64v7.42h-.7v-1.04c-.44.71-1.19,1.09-2.08,1.09-1.54,0-2.69-1.09-2.69-2.68s1.15-2.67,2.69-2.67c.86,0,1.6.36,2.05,1.04v-3.16h.73ZM129.19,258.42c0-1.23-.86-2.05-2-2.05s-2.01.82-2.01,2.05.86,2.05,2.01,2.05,2-.82,2-2.05Z"/>
    </g>
    <g>
      <path class="cls-1" d="M104.32,205.15v7h-.73v-3.23h-4.38v3.23h-.74v-7h.74v3.12h4.38v-3.12h.73Z"/>
      <path class="cls-1" d="M111.03,209.73h-4.4c.08,1.1.92,1.83,2.07,1.83.64,0,1.21-.23,1.61-.69l.4.46c-.47.56-1.2.86-2.03.86-1.64,0-2.76-1.12-2.76-2.68s1.09-2.67,2.57-2.67,2.55,1.09,2.55,2.67c0,.06,0,.14,0,.22ZM106.63,209.2h3.73c-.09-1.03-.84-1.75-1.87-1.75s-1.77.72-1.86,1.75Z"/>
      <path class="cls-1" d="M116.31,208.88v3.26h-.68v-.82c-.32.54-.94.87-1.81.87-1.19,0-1.92-.62-1.92-1.53,0-.81.52-1.49,2.03-1.49h1.67v-.32c0-.9-.51-1.39-1.49-1.39-.68,0-1.32.24-1.75.62l-.32-.53c.53-.45,1.31-.71,2.14-.71,1.36,0,2.13.68,2.13,2.04ZM115.6,210.56v-.86h-1.65c-1.02,0-1.35.4-1.35.94,0,.61.49.99,1.33.99s1.39-.38,1.67-1.07Z"/>
      <path class="cls-1" d="M120.89,206.85v.69c-.06,0-.12,0-.17,0-1.1,0-1.77.7-1.77,1.94v2.68h-.71v-5.26h.68v1.03c.33-.7,1-1.07,1.97-1.07Z"/>
      <path class="cls-1" d="M125.17,211.82c-.28.25-.7.37-1.11.37-.99,0-1.54-.56-1.54-1.53v-3.18h-.94v-.6h.94v-1.15h.71v1.15h1.6v.6h-1.6v3.14c0,.62.32.96.91.96.29,0,.58-.09.78-.27l.25.51Z"/>
    </g>
    <g>
      <path class="cls-1" d="M89.3,162.26l.29-.57c.5.49,1.39.85,2.31.85,1.31,0,1.88-.55,1.88-1.24,0-1.92-4.31-.74-4.31-3.33,0-1.03.8-1.92,2.58-1.92.79,0,1.61.23,2.17.62l-.25.59c-.6-.39-1.3-.58-1.92-.58-1.28,0-1.85.57-1.85,1.27,0,1.92,4.31.76,4.31,3.31,0,1.03-.82,1.91-2.61,1.91-1.05,0-2.08-.37-2.6-.91Z"/>
      <path class="cls-1" d="M98.74,162.79c-.28.25-.7.37-1.11.37-.99,0-1.54-.56-1.54-1.53v-3.18h-.94v-.6h.94v-1.15h.71v1.15h1.6v.6h-1.6v3.14c0,.62.32.96.91.96.29,0,.58-.09.78-.27l.25.51Z"/>
      <path class="cls-1" d="M99.31,160.48c0-1.56,1.14-2.67,2.68-2.67s2.67,1.11,2.67,2.67-1.13,2.68-2.67,2.68-2.68-1.12-2.68-2.68ZM103.94,160.48c0-1.23-.83-2.05-1.95-2.05s-1.96.82-1.96,2.05.84,2.05,1.96,2.05,1.95-.82,1.95-2.05Z"/>
      <path class="cls-1" d="M114.78,160.06v3.05h-.71v-2.98c0-1.11-.56-1.68-1.51-1.68-1.08,0-1.76.7-1.76,1.9v2.76h-.71v-2.98c0-1.11-.56-1.68-1.52-1.68-1.07,0-1.76.7-1.76,1.9v2.76h-.71v-5.26h.68v.96c.37-.63,1.05-1,1.93-1s1.55.37,1.87,1.11c.38-.68,1.13-1.11,2.08-1.11,1.28,0,2.12.74,2.12,2.25Z"/>
      <path class="cls-1" d="M120.69,159.85v3.26h-.68v-.82c-.32.54-.94.87-1.81.87-1.19,0-1.92-.62-1.92-1.53,0-.81.52-1.49,2.03-1.49h1.67v-.32c0-.9-.51-1.39-1.49-1.39-.68,0-1.32.24-1.75.62l-.32-.53c.53-.45,1.31-.71,2.14-.71,1.36,0,2.13.68,2.13,2.04ZM119.98,161.53v-.86h-1.65c-1.02,0-1.35.4-1.35.94,0,.61.49.99,1.33.99s1.39-.38,1.67-1.07Z"/>
      <path class="cls-1" d="M122.11,160.48c0-1.57,1.14-2.67,2.71-2.67.89,0,1.64.35,2.06,1.04l-.53.36c-.36-.53-.92-.78-1.53-.78-1.15,0-1.99.82-1.99,2.05s.84,2.05,1.99,2.05c.61,0,1.17-.24,1.53-.77l.53.36c-.42.68-1.17,1.04-2.06,1.04-1.57,0-2.71-1.11-2.71-2.68Z"/>
      <path class="cls-1" d="M133.03,160.06v3.05h-.71v-2.98c0-1.11-.58-1.68-1.58-1.68-1.13,0-1.84.7-1.84,1.9v2.76h-.71v-7.42h.71v3.08c.39-.61,1.08-.96,1.97-.96,1.28,0,2.16.74,2.16,2.25Z"/>
    </g>
    <g>
      <path class="cls-1" d="M95.86,89.03c0,1.49-1.08,2.39-2.86,2.39h-1.88v2.21h-.74v-7h2.62c1.78,0,2.86.9,2.86,2.4ZM95.12,89.03c0-1.12-.74-1.76-2.14-1.76h-1.86v3.5h1.86c1.4,0,2.14-.64,2.14-1.74Z"/>
      <path class="cls-1" d="M101.23,90.37v3.26h-.68v-.82c-.32.54-.94.87-1.81.87-1.19,0-1.92-.62-1.92-1.53,0-.81.52-1.49,2.03-1.49h1.67v-.32c0-.9-.51-1.39-1.49-1.39-.68,0-1.32.24-1.75.62l-.32-.53c.53-.45,1.31-.71,2.14-.71,1.36,0,2.13.68,2.13,2.04ZM100.53,92.05v-.86h-1.65c-1.02,0-1.35.4-1.35.94,0,.61.49.99,1.33.99s1.39-.38,1.67-1.07Z"/>
      <path class="cls-1" d="M108,90.58v3.05h-.71v-2.98c0-1.11-.58-1.68-1.58-1.68-1.13,0-1.84.7-1.84,1.9v2.76h-.71v-5.26h.68v.97c.38-.64,1.09-1.01,2-1.01,1.28,0,2.16.74,2.16,2.25Z"/>
      <path class="cls-1" d="M109.43,91c0-1.57,1.14-2.67,2.71-2.67.89,0,1.64.35,2.06,1.04l-.53.36c-.36-.53-.92-.78-1.53-.78-1.15,0-1.99.82-1.99,2.05s.84,2.05,1.99,2.05c.61,0,1.17-.24,1.53-.77l.53.36c-.42.68-1.17,1.04-2.06,1.04-1.57,0-2.71-1.11-2.71-2.68Z"/>
      <path class="cls-1" d="M118.23,88.33v.69c-.06,0-.12,0-.17,0-1.1,0-1.77.7-1.77,1.94v2.68h-.71v-5.26h.68v1.03c.33-.7,1-1.07,1.97-1.07Z"/>
      <path class="cls-1" d="M124.04,91.22h-4.4c.08,1.1.92,1.83,2.07,1.83.64,0,1.21-.23,1.61-.69l.4.46c-.47.56-1.2.86-2.03.86-1.64,0-2.76-1.12-2.76-2.68s1.09-2.67,2.57-2.67,2.55,1.09,2.55,2.67c0,.06,0,.14,0,.22ZM119.65,90.69h3.73c-.09-1.03-.84-1.75-1.87-1.75s-1.77.72-1.86,1.75Z"/>
      <path class="cls-1" d="M129.32,90.37v3.26h-.68v-.82c-.32.54-.94.87-1.81.87-1.19,0-1.92-.62-1.92-1.53,0-.81.52-1.49,2.03-1.49h1.67v-.32c0-.9-.51-1.39-1.49-1.39-.68,0-1.32.24-1.75.62l-.32-.53c.53-.45,1.31-.71,2.14-.71,1.36,0,2.13.68,2.13,2.04ZM128.61,92.05v-.86h-1.65c-1.02,0-1.35.4-1.35.94,0,.61.49.99,1.33.99s1.39-.38,1.67-1.07Z"/>
      <path class="cls-1" d="M130.53,93.03l.32-.56c.42.33,1.13.59,1.87.59,1,0,1.41-.34,1.41-.86,0-1.37-3.41-.29-3.41-2.37,0-.86.74-1.5,2.08-1.5.68,0,1.42.19,1.86.49l-.31.57c-.46-.32-1.01-.45-1.55-.45-.95,0-1.37.37-1.37.87,0,1.42,3.41.35,3.41,2.37,0,.91-.8,1.5-2.17,1.5-.87,0-1.71-.28-2.14-.65Z"/>
    </g>
    <g>
      <path class="cls-1" d="M87.81,33.51h.74v7h-.74v-7Z"/>
      <path class="cls-1" d="M95.52,37.46v3.05h-.71v-2.98c0-1.11-.58-1.68-1.58-1.68-1.13,0-1.84.7-1.84,1.9v2.76h-.71v-5.26h.68v.97c.38-.64,1.09-1.01,2-1.01,1.28,0,2.16.74,2.16,2.25Z"/>
      <path class="cls-1" d="M100.22,40.19c-.28.25-.7.37-1.11.37-.99,0-1.54-.56-1.54-1.53v-3.18h-.94v-.6h.94v-1.15h.71v1.15h1.6v.6h-1.6v3.14c0,.62.32.96.91.96.29,0,.58-.09.78-.27l.25.51Z"/>
      <path class="cls-1" d="M105.9,38.1h-4.4c.08,1.1.92,1.83,2.07,1.83.64,0,1.21-.23,1.61-.69l.4.46c-.47.56-1.2.86-2.03.86-1.64,0-2.76-1.12-2.76-2.68s1.09-2.67,2.57-2.67,2.55,1.09,2.55,2.67c0,.06,0,.14,0,.22ZM101.5,37.57h3.73c-.09-1.03-.84-1.75-1.87-1.75s-1.77.72-1.86,1.75Z"/>
      <path class="cls-1" d="M106.63,39.91l.32-.56c.42.33,1.13.59,1.87.59,1,0,1.41-.34,1.41-.86,0-1.37-3.41-.29-3.41-2.37,0-.86.74-1.5,2.08-1.5.68,0,1.42.19,1.86.49l-.31.57c-.46-.32-1.01-.45-1.55-.45-.95,0-1.37.37-1.37.87,0,1.42,3.41.35,3.41,2.37,0,.91-.8,1.5-2.17,1.5-.87,0-1.71-.28-2.14-.65Z"/>
      <path class="cls-1" d="M115.02,40.19c-.28.25-.7.37-1.11.37-.99,0-1.54-.56-1.54-1.53v-3.18h-.94v-.6h.94v-1.15h.71v1.15h1.6v.6h-1.6v3.14c0,.62.32.96.91.96.29,0,.58-.09.78-.27l.25.51Z"/>
      <path class="cls-1" d="M116.15,33.59c0-.27.23-.5.52-.5s.52.22.52.49c0,.29-.22.52-.52.52s-.52-.23-.52-.51ZM116.31,35.25h.71v5.26h-.71v-5.26Z"/>
      <path class="cls-1" d="M123.84,37.46v3.05h-.71v-2.98c0-1.11-.58-1.68-1.58-1.68-1.13,0-1.84.7-1.84,1.9v2.76h-.71v-5.26h.68v.97c.38-.64,1.09-1.01,2-1.01,1.28,0,2.16.74,2.16,2.25Z"/>
      <path class="cls-1" d="M130.37,38.1h-4.4c.08,1.1.92,1.83,2.07,1.83.64,0,1.21-.23,1.61-.69l.4.46c-.47.56-1.2.86-2.03.86-1.64,0-2.76-1.12-2.76-2.68s1.09-2.67,2.57-2.67,2.55,1.09,2.55,2.67c0,.06,0,.14,0,.22ZM125.97,37.57h3.73c-.09-1.03-.84-1.75-1.87-1.75s-1.77.72-1.86,1.75Z"/>
      <path class="cls-1" d="M131.1,39.91l.32-.56c.42.33,1.13.59,1.87.59,1,0,1.41-.34,1.41-.86,0-1.37-3.41-.29-3.41-2.37,0-.86.74-1.5,2.08-1.5.68,0,1.42.19,1.86.49l-.31.57c-.46-.32-1.01-.45-1.55-.45-.95,0-1.37.37-1.37.87,0,1.42,3.41.35,3.41,2.37,0,.91-.8,1.5-2.17,1.5-.87,0-1.71-.28-2.14-.65Z"/>
    </g>
    <g>
      <path class="cls-1" d="M162.47,63.74l-1.43,1.45v1.84h-.74v-7h.74v4.23l4.11-4.23h.85l-3.03,3.17,3.24,3.83h-.88l-2.86-3.29Z"/>
      <path class="cls-1" d="M167,60.11c0-.27.23-.5.52-.5s.52.22.52.49c0,.29-.22.52-.52.52s-.52-.23-.52-.51ZM167.16,61.77h.71v5.26h-.71v-5.26Z"/>
      <path class="cls-1" d="M174.65,59.61v7.42h-.68v-1.04c-.43.71-1.16,1.09-2.03,1.09-1.5,0-2.62-1.09-2.62-2.68s1.12-2.67,2.62-2.67c.84,0,1.56.36,2,1.04v-3.16h.71ZM173.95,64.4c0-1.23-.84-2.05-1.95-2.05s-1.96.82-1.96,2.05.84,2.05,1.96,2.05,1.95-.82,1.95-2.05Z"/>
      <path class="cls-1" d="M181.47,63.98v3.05h-.71v-2.98c0-1.11-.58-1.68-1.58-1.68-1.13,0-1.84.7-1.84,1.9v2.76h-.71v-5.26h.68v.97c.38-.64,1.09-1.01,2-1.01,1.28,0,2.16.74,2.16,2.25Z"/>
      <path class="cls-1" d="M188,64.62h-4.4c.08,1.1.92,1.83,2.07,1.83.64,0,1.21-.23,1.61-.69l.4.46c-.47.56-1.2.86-2.03.86-1.64,0-2.76-1.12-2.76-2.68s1.09-2.67,2.57-2.67,2.55,1.09,2.55,2.67c0,.06,0,.14,0,.22ZM183.6,64.09h3.73c-.09-1.03-.84-1.75-1.87-1.75s-1.77.72-1.86,1.75Z"/>
      <path class="cls-1" d="M193.78,61.77l-2.63,5.89c-.44,1.03-1,1.36-1.75,1.36-.49,0-.96-.16-1.28-.48l.33-.53c.26.26.58.4.96.4.47,0,.79-.22,1.09-.88l.23-.51-2.35-5.25h.74l1.98,4.47,1.98-4.47h.7Z"/>
    </g>
    <g>
      <path class="cls-1" d="M29.11,123.36h.74v6.36h3.92v.64h-4.66v-7Z"/>
      <path class="cls-1" d="M34.69,123.44c0-.27.23-.5.52-.5s.52.22.52.49c0,.29-.22.52-.52.52s-.52-.23-.52-.51ZM34.85,125.09h.71v5.26h-.71v-5.26Z"/>
      <path class="cls-1" d="M41.96,125.09l-2.34,5.26h-.73l-2.33-5.26h.74l1.97,4.48,1.99-4.48h.7Z"/>
      <path class="cls-1" d="M47.39,127.94h-4.4c.08,1.1.92,1.83,2.07,1.83.64,0,1.21-.23,1.61-.69l.4.46c-.47.56-1.2.86-2.03.86-1.64,0-2.76-1.12-2.76-2.68s1.09-2.67,2.57-2.67,2.55,1.09,2.55,2.67c0,.06,0,.14,0,.22ZM42.99,127.41h3.73c-.09-1.03-.84-1.75-1.87-1.75s-1.77.72-1.86,1.75Z"/>
      <path class="cls-1" d="M51.5,125.05v.69c-.06,0-.12,0-.17,0-1.1,0-1.77.7-1.77,1.94v2.68h-.71v-5.26h.68v1.03c.33-.7,1-1.07,1.97-1.07Z"/>
    </g>
    <g>
      <path class="cls-1" d="M161.99,129.5l.29-.57c.5.49,1.39.85,2.31.85,1.31,0,1.88-.55,1.88-1.24,0-1.92-4.31-.74-4.31-3.33,0-1.03.8-1.92,2.58-1.92.79,0,1.61.23,2.17.62l-.25.59c-.6-.39-1.3-.58-1.92-.58-1.28,0-1.85.57-1.85,1.27,0,1.92,4.31.76,4.31,3.31,0,1.03-.82,1.91-2.61,1.91-1.05,0-2.08-.37-2.6-.91Z"/>
      <path class="cls-1" d="M173.98,127.72c0,1.6-1.12,2.68-2.62,2.68-.84,0-1.56-.36-2-1.04v2.93h-.71v-7.2h.68v1.04c.43-.7,1.16-1.08,2.03-1.08,1.5,0,2.62,1.08,2.62,2.67ZM173.27,127.72c0-1.22-.85-2.05-1.96-2.05s-1.96.83-1.96,2.05.84,2.05,1.96,2.05,1.96-.82,1.96-2.05Z"/>
      <path class="cls-1" d="M175.44,122.94h.71v7.42h-.71v-7.42Z"/>
      <path class="cls-1" d="M182.7,127.94h-4.4c.08,1.1.92,1.83,2.07,1.83.64,0,1.21-.23,1.61-.69l.4.46c-.47.56-1.2.86-2.03.86-1.64,0-2.76-1.12-2.76-2.68s1.09-2.67,2.57-2.67,2.55,1.09,2.55,2.67c0,.06,0,.14,0,.22ZM178.31,127.41h3.73c-.09-1.03-.84-1.75-1.87-1.75s-1.77.72-1.86,1.75Z"/>
      <path class="cls-1" d="M188.74,127.94h-4.4c.08,1.1.92,1.83,2.07,1.83.64,0,1.21-.23,1.61-.69l.4.46c-.47.56-1.2.86-2.03.86-1.64,0-2.76-1.12-2.76-2.68s1.09-2.67,2.57-2.67,2.55,1.09,2.55,2.67c0,.06,0,.14,0,.22ZM184.35,127.41h3.73c-.09-1.03-.84-1.75-1.87-1.75s-1.77.72-1.86,1.75Z"/>
      <path class="cls-1" d="M195.04,127.3v3.05h-.71v-2.98c0-1.11-.58-1.68-1.58-1.68-1.13,0-1.84.7-1.84,1.9v2.76h-.71v-5.26h.68v.97c.38-.64,1.09-1.01,2-1.01,1.28,0,2.16.74,2.16,2.25Z"/>
    </g>
    <g>
      <path class="cls-2" d="M97.94,269.63v-2.94s-1.45,2.42-1.45,2.42h-.51l-1.44-2.36v2.88h-1.06v-4.9h.94l1.83,3.05,1.81-3.05h.93v4.9s-1.05,0-1.05,0Z"/>
      <path class="cls-2" d="M103.39,268.58h-2.28l-.43,1.05h-1.16l2.19-4.9h1.12l2.19,4.9h-1.19l-.43-1.05ZM103.04,267.72l-.78-1.88-.78,1.88h1.55Z"/>
      <path class="cls-2" d="M105.53,264.73h2.23c1.6,0,2.7.97,2.7,2.45s-1.1,2.45-2.7,2.45h-2.23v-4.9ZM107.7,268.7c.97,0,1.61-.58,1.61-1.52s-.64-1.52-1.61-1.52h-1.04v3.04h1.04Z"/>
      <path class="cls-2" d="M115.81,264.73v4.9h-1.13v-2.01h-2.23v2.01h-1.13v-4.9h1.13v1.93h2.23v-1.93h1.13Z"/>
      <path class="cls-2" d="M116.92,267.48v-2.75h1.13v2.7c0,.93.41,1.32,1.09,1.32s1.09-.38,1.09-1.32v-2.7h1.12v2.75c0,1.44-.83,2.24-2.22,2.24s-2.22-.8-2.22-2.24Z"/>
      <path class="cls-2" d="M125.61,269.63l-.95-1.37h-1.04v1.37h-1.13v-4.9h2.12c1.31,0,2.13.68,2.13,1.78,0,.74-.37,1.28-1.01,1.55l1.1,1.58h-1.22ZM124.54,265.66h-.92v1.71h.92c.69,0,1.04-.32,1.04-.85s-.35-.85-1.04-.85Z"/>
      <path class="cls-2" d="M130.86,268.58h-2.28l-.43,1.05h-1.16l2.19-4.9h1.12l2.19,4.9h-1.19l-.43-1.05ZM130.5,267.72l-.78-1.88-.78,1.88h1.55Z"/>
    </g>
    <g>
      <path class="cls-2" d="M37.12,211.96h-2.28l-.43,1.05h-1.16l2.19-4.9h1.12l2.19,4.9h-1.19l-.43-1.05ZM36.76,211.1l-.78-1.88-.78,1.88h1.55Z"/>
      <path class="cls-2" d="M43.71,213.01v-2.94s-1.45,2.42-1.45,2.42h-.51l-1.44-2.36v2.88h-1.06v-4.9h.94l1.83,3.05,1.81-3.05h.93v4.9s-1.05,0-1.05,0Z"/>
      <path class="cls-2" d="M45.93,208.11h1.13v3.98h2.46v.92h-3.59v-4.9Z"/>
      <path class="cls-2" d="M53.43,211.96h-2.28l-.43,1.05h-1.16l2.19-4.9h1.12l2.19,4.9h-1.19l-.43-1.05ZM53.07,211.1l-.78-1.88-.78,1.88h1.55Z"/>
    </g>
    <g>
      <path class="cls-2" d="M101.43,184.17l-.66.69v1.24h-1.13v-4.9h1.13v2.29l2.17-2.29h1.26l-2.03,2.18,2.15,2.72h-1.32l-1.57-1.93Z"/>
      <path class="cls-2" d="M107.84,185.05h-2.28l-.43,1.05h-1.16l2.19-4.9h1.12l2.19,4.9h-1.19l-.43-1.05ZM107.48,184.19l-.78-1.88-.78,1.88h1.55Z"/>
      <path class="cls-2" d="M110.74,182.12h-1.57v-.92h4.27v.92h-1.57v3.98h-1.13v-3.98Z"/>
      <path class="cls-2" d="M118.55,181.19v4.9h-1.13v-2.01h-2.23v2.01h-1.13v-4.9h1.13v1.93h2.23v-1.93h1.13Z"/>
      <path class="cls-2" d="M119.66,183.94v-2.75h1.13v2.7c0,.93.41,1.32,1.09,1.32s1.09-.38,1.09-1.32v-2.7h1.12v2.75c0,1.44-.83,2.24-2.22,2.24s-2.22-.8-2.22-2.24Z"/>
    </g>
    <g>
      <path class="cls-2" d="M101.24,101.99h-1.57v-.92h4.27v.92h-1.57v3.98h-1.13v-3.98Z"/>
      <path class="cls-2" d="M104.55,101.07h1.13v4.9h-1.13v-4.9Z"/>
      <path class="cls-2" d="M108.63,104.05l-.66.69v1.24h-1.13v-4.9h1.13v2.29l2.17-2.29h1.26l-2.03,2.18,2.15,2.72h-1.32l-1.57-1.93Z"/>
      <path class="cls-2" d="M112.71,101.99h-1.57v-.92h4.27v.92h-1.57v3.98h-1.13v-3.98Z"/>
      <path class="cls-2" d="M119,104.92h-2.28l-.43,1.05h-1.16l2.19-4.9h1.12l2.19,4.9h-1.19l-.43-1.05ZM118.64,104.06l-.78-1.88-.78,1.88h1.55Z"/>
    </g>
    <g>
      <path class="cls-2" d="M161.95,69.74h1.13v3.98h2.46v.92h-3.59v-4.9Z"/>
      <path class="cls-2" d="M169.45,73.59h-2.28l-.43,1.05h-1.16l2.19-4.9h1.12l2.19,4.9h-1.19l-.43-1.05ZM169.09,72.73l-.78-1.88-.78,1.88h1.55Z"/>
      <path class="cls-2" d="M176.03,69.74l-2.12,4.9h-1.12l-2.12-4.9h1.23l1.49,3.5,1.51-3.5h1.13Z"/>
      <path class="cls-2" d="M179.5,73.59h-2.28l-.43,1.05h-1.16l2.19-4.9h1.12l2.19,4.9h-1.19l-.43-1.05ZM179.14,72.73l-.78-1.88-.78,1.88h1.55Z"/>
      <path class="cls-2" d="M186.13,69.74v4.9h-.93l-2.44-2.98v2.98h-1.12v-4.9h.94l2.44,2.98v-2.98h1.12Z"/>
      <path class="cls-2" d="M190.52,73.59h-2.28l-.43,1.05h-1.16l2.19-4.9h1.12l2.19,4.9h-1.19l-.43-1.05ZM190.16,72.73l-.78-1.88-.78,1.88h1.55Z"/>
    </g>
    <g>
      <path class="cls-2" d="M96.57,46.13l-.66.69v1.24h-1.13v-4.9h1.13v2.29l2.17-2.29h1.26l-2.03,2.18,2.15,2.72h-1.32l-1.57-1.93Z"/>
      <path class="cls-2" d="M102.97,47.01h-2.28l-.43,1.05h-1.16l2.19-4.9h1.12l2.19,4.9h-1.19l-.43-1.05ZM102.62,46.14l-.78-1.88-.78,1.88h1.55Z"/>
      <path class="cls-2" d="M104.72,47.57l.38-.85c.41.3,1.03.51,1.62.51.67,0,.95-.22.95-.53,0-.92-2.85-.29-2.85-2.11,0-.83.67-1.53,2.07-1.53.62,0,1.25.15,1.7.43l-.35.86c-.46-.26-.92-.38-1.36-.38-.67,0-.93.25-.93.56,0,.9,2.85.28,2.85,2.08,0,.82-.68,1.52-2.08,1.52-.78,0-1.56-.23-2-.57Z"/>
      <path class="cls-2" d="M114.07,43.15v4.9h-1.13v-2.01h-2.23v2.01h-1.13v-4.9h1.13v1.93h2.23v-1.93h1.13Z"/>
      <path class="cls-2" d="M118.46,47.01h-2.28l-.43,1.05h-1.16l2.19-4.9h1.12l2.19,4.9h-1.19l-.43-1.05ZM118.63,42.56h-2.59v-.62h2.59v.62ZM118.1,46.14l-.78-1.88-.78,1.88h1.55Z"/>
      <path class="cls-2" d="M122.64,46.32v1.74h-1.13v-1.75l-1.9-3.15h1.2l1.31,2.18,1.31-2.18h1.11l-1.91,3.17Z"/>
      <path class="cls-2" d="M127.95,47.01h-2.28l-.43,1.05h-1.16l2.19-4.9h1.12l2.19,4.9h-1.19l-.43-1.05ZM127.59,46.14l-.78-1.88-.78,1.88h1.55Z"/>
    </g>
    <g>
      <path class="cls-1" d="M162.06,196.58h.74v6.36h3.92v.64h-4.66v-7Z"/>
      <path class="cls-1" d="M172.45,198.32v5.26h-.68v-.96c-.37.64-1.05,1.01-1.89,1.01-1.34,0-2.22-.75-2.22-2.26v-3.05h.71v2.98c0,1.12.58,1.69,1.58,1.69,1.1,0,1.79-.71,1.79-1.91v-2.76h.71Z"/>
      <path class="cls-1" d="M179.28,200.53v3.05h-.71v-2.98c0-1.11-.58-1.68-1.58-1.68-1.13,0-1.84.7-1.84,1.9v2.76h-.71v-5.26h.68v.97c.38-.64,1.09-1.01,2-1.01,1.28,0,2.16.74,2.16,2.25Z"/>
      <path class="cls-1" d="M186.1,198.32v4.62c0,1.81-.89,2.63-2.63,2.63-.96,0-1.9-.29-2.45-.81l.36-.54c.5.45,1.26.72,2.07.72,1.33,0,1.94-.61,1.94-1.91v-.67c-.44.67-1.19,1.02-2.05,1.02-1.5,0-2.64-1.05-2.64-2.56s1.14-2.54,2.64-2.54c.88,0,1.64.36,2.08,1.05v-1.01h.68ZM185.41,200.82c0-1.14-.84-1.92-2-1.92s-1.99.78-1.99,1.92.83,1.93,1.99,1.93,2-.79,2-1.93Z"/>
    </g>
    <g>
      <path class="cls-2" d="M166.87,211.96h-2.28l-.43,1.05h-1.16l2.19-4.9h1.12l2.19,4.9h-1.19l-.43-1.05ZM166.51,211.1l-.78-1.88-.78,1.88h1.55Z"/>
      <path class="cls-2" d="M173.46,213.01v-2.94s-1.45,2.42-1.45,2.42h-.51l-1.44-2.36v2.88h-1.06v-4.9h.94l1.83,3.05,1.81-3.05h.93v4.9s-1.05,0-1.05,0Z"/>
      <path class="cls-2" d="M175.68,208.11h1.13v3.98h2.46v.92h-3.59v-4.9Z"/>
      <path class="cls-2" d="M183.18,211.96h-2.28l-.43,1.05h-1.16l2.19-4.9h1.12l2.19,4.9h-1.19l-.43-1.05ZM182.83,211.1l-.78-1.88-.78,1.88h1.55Z"/>
    </g>
    <g>
      <path class="cls-1" d="M26.79,63.74l-1.43,1.45v1.84h-.74v-7h.74v4.23l4.11-4.23h.85l-3.03,3.17,3.24,3.83h-.88l-2.86-3.29Z"/>
      <path class="cls-1" d="M31.32,60.11c0-.27.23-.5.52-.5s.52.22.52.49c0,.29-.22.52-.52.52s-.52-.23-.52-.51ZM31.48,61.77h.71v5.26h-.71v-5.26Z"/>
      <path class="cls-1" d="M38.97,59.61v7.42h-.68v-1.04c-.43.71-1.16,1.09-2.03,1.09-1.5,0-2.62-1.09-2.62-2.68s1.12-2.67,2.62-2.67c.84,0,1.56.36,2,1.04v-3.16h.71ZM38.27,64.4c0-1.23-.84-2.05-1.95-2.05s-1.96.82-1.96,2.05.84,2.05,1.96,2.05,1.95-.82,1.95-2.05Z"/>
      <path class="cls-1" d="M45.79,63.98v3.05h-.71v-2.98c0-1.11-.58-1.68-1.58-1.68-1.13,0-1.84.7-1.84,1.9v2.76h-.71v-5.26h.68v.97c.38-.64,1.09-1.01,2-1.01,1.28,0,2.16.74,2.16,2.25Z"/>
      <path class="cls-1" d="M52.32,64.62h-4.4c.08,1.1.92,1.83,2.07,1.83.64,0,1.21-.23,1.61-.69l.4.46c-.47.56-1.2.86-2.03.86-1.64,0-2.76-1.12-2.76-2.68s1.09-2.67,2.57-2.67,2.55,1.09,2.55,2.67c0,.06,0,.14,0,.22ZM47.92,64.09h3.73c-.09-1.03-.84-1.75-1.87-1.75s-1.77.72-1.86,1.75Z"/>
      <path class="cls-1" d="M58.1,61.77l-2.63,5.89c-.44,1.03-1,1.36-1.75,1.36-.49,0-.96-.16-1.28-.48l.33-.53c.26.26.58.4.96.4.47,0,.79-.22,1.09-.88l.23-.51-2.35-5.25h.74l1.98,4.47,1.98-4.47h.7Z"/>
    </g>
    <g>
      <path class="cls-2" d="M26.27,69.74h1.13v3.98h2.46v.92h-3.59v-4.9Z"/>
      <path class="cls-2" d="M33.77,73.59h-2.28l-.43,1.05h-1.16l2.19-4.9h1.12l2.19,4.9h-1.19l-.43-1.05ZM33.41,72.73l-.78-1.88-.78,1.88h1.55Z"/>
      <path class="cls-2" d="M40.35,69.74l-2.12,4.9h-1.12l-2.12-4.9h1.23l1.49,3.5,1.51-3.5h1.13Z"/>
      <path class="cls-2" d="M43.82,73.59h-2.28l-.43,1.05h-1.16l2.19-4.9h1.12l2.19,4.9h-1.19l-.43-1.05ZM43.46,72.73l-.78-1.88-.78,1.88h1.55Z"/>
      <path class="cls-2" d="M50.45,69.74v4.9h-.93l-2.44-2.98v2.98h-1.12v-4.9h.94l2.44,2.98v-2.98h1.12Z"/>
      <path class="cls-2" d="M54.84,73.59h-2.28l-.43,1.05h-1.16l2.19-4.9h1.12l2.19,4.9h-1.19l-.43-1.05ZM54.48,72.73l-.78-1.88-.78,1.88h1.55Z"/>
    </g>
  </g>
</svg>