<?xml version="1.0" encoding="UTF-8"?>
<svg id="Layer_2" data-name="Layer 2" xmlns="http://www.w3.org/2000/svg" viewBox="0 0 156.37 104.53">
  <defs>
    <style>
      .cls-1 {
        fill: #7f3b2f;
      }
    </style>
  </defs>
  <g id="Layer_1-2" data-name="Layer 1">
    <path id="Sigmoid_Colon" data-name="Sigmoid Colon" class="cls-1" d="M55.18,99.7c-17-.2-22-4.9-26.2-9.8l-2.2-3.2c-5.3,4.5-11.6,3.6-17.1-1C11.78,97.5-1.12,30.1.08,30.9l11,4.5c3.5.5,6.2,2.1,9.3,4,1.7.4,3.1,1,4.3,2h2l6.6,5.7c7.5,0,15,2.2,21.3,6.9,6.4-1.5,12.8-.8,19.2,1.9,5.7-3.3,10.9-7.6,15.6-12.9l4.6-3.2c3.2-5.5,6.8-10.5,11.1-14.8,2.2-6.6,5.5-13,10.2-17.5-.9-4.5,43.8-12.8,39.2-2.7,3.6,9.4,2,20.3-4.4,27.6-1,10.7-5.3,20.8-12.2,27.5-4.1,10.7-9.7,19.2-20,20-5.7,11-15.6,19.3-26.5,16.3-7.4,9.5-22,11.9-28.8,1.8-2.7,1.3-5,1.7-7.3,1.7h-.1Z"/>
  </g>
</svg>